%TF.GenerationSoftware,KiCad,Pcbnew,8.0.7*%
%TF.CreationDate,2025-04-01T11:43:10-06:00*%
%TF.ProjectId,SparkFun_GNSS_LG580P_panelized,53706172-6b46-4756-9e5f-474e53535f4c,rev?*%
%TF.SameCoordinates,Original*%
%TF.FileFunction,Soldermask,Top*%
%TF.FilePolarity,Negative*%
%FSLAX46Y46*%
G04 Gerber Fmt 4.6, Leading zero omitted, Abs format (unit mm)*
G04 Created by KiCad (PCBNEW 8.0.7) date 2025-04-01 11:43:10*
%MOMM*%
%LPD*%
G01*
G04 APERTURE LIST*
G04 Aperture macros list*
%AMRoundRect*
0 Rectangle with rounded corners*
0 $1 Rounding radius*
0 $2 $3 $4 $5 $6 $7 $8 $9 X,Y pos of 4 corners*
0 Add a 4 corners polygon primitive as box body*
4,1,4,$2,$3,$4,$5,$6,$7,$8,$9,$2,$3,0*
0 Add four circle primitives for the rounded corners*
1,1,$1+$1,$2,$3*
1,1,$1+$1,$4,$5*
1,1,$1+$1,$6,$7*
1,1,$1+$1,$8,$9*
0 Add four rect primitives between the rounded corners*
20,1,$1+$1,$2,$3,$4,$5,0*
20,1,$1+$1,$4,$5,$6,$7,0*
20,1,$1+$1,$6,$7,$8,$9,0*
20,1,$1+$1,$8,$9,$2,$3,0*%
G04 Aperture macros list end*
%ADD10C,0.000000*%
%ADD11C,3.000000*%
%ADD12C,3.200000*%
%ADD13RoundRect,0.225000X-0.225000X-0.300000X0.225000X-0.300000X0.225000X0.300000X-0.225000X0.300000X0*%
%ADD14RoundRect,0.165000X-0.195000X0.165000X-0.195000X-0.165000X0.195000X-0.165000X0.195000X0.165000X0*%
%ADD15RoundRect,0.250000X0.275000X-0.250000X0.275000X0.250000X-0.275000X0.250000X-0.275000X-0.250000X0*%
%ADD16RoundRect,0.250000X-0.250000X-0.275000X0.250000X-0.275000X0.250000X0.275000X-0.250000X0.275000X0*%
%ADD17RoundRect,0.225000X0.300000X-0.225000X0.300000X0.225000X-0.300000X0.225000X-0.300000X-0.225000X0*%
%ADD18RoundRect,0.243750X0.243750X0.281250X-0.243750X0.281250X-0.243750X-0.281250X0.243750X-0.281250X0*%
%ADD19RoundRect,0.250000X-0.275000X0.250000X-0.275000X-0.250000X0.275000X-0.250000X0.275000X0.250000X0*%
%ADD20RoundRect,0.050000X0.275000X0.600000X-0.275000X0.600000X-0.275000X-0.600000X0.275000X-0.600000X0*%
%ADD21RoundRect,0.050000X-0.300000X-0.675000X0.300000X-0.675000X0.300000X0.675000X-0.300000X0.675000X0*%
%ADD22RoundRect,0.050000X-0.600000X-1.000000X0.600000X-1.000000X0.600000X1.000000X-0.600000X1.000000X0*%
%ADD23RoundRect,0.165000X0.165000X0.195000X-0.165000X0.195000X-0.165000X-0.195000X0.165000X-0.195000X0*%
%ADD24RoundRect,0.250000X0.250000X0.275000X-0.250000X0.275000X-0.250000X-0.275000X0.250000X-0.275000X0*%
%ADD25RoundRect,0.165000X0.195000X-0.165000X0.195000X0.165000X-0.195000X0.165000X-0.195000X-0.165000X0*%
%ADD26RoundRect,0.087500X-0.375000X-0.087500X0.375000X-0.087500X0.375000X0.087500X-0.375000X0.087500X0*%
%ADD27RoundRect,0.087500X-0.087500X-0.375000X0.087500X-0.375000X0.087500X0.375000X-0.087500X0.375000X0*%
%ADD28RoundRect,0.050000X-1.350000X-1.350000X1.350000X-1.350000X1.350000X1.350000X-1.350000X1.350000X0*%
%ADD29RoundRect,0.225000X0.225000X0.300000X-0.225000X0.300000X-0.225000X-0.300000X0.225000X-0.300000X0*%
%ADD30RoundRect,0.050000X-2.000000X0.750000X-2.000000X-0.750000X2.000000X-0.750000X2.000000X0.750000X0*%
%ADD31C,1.979600*%
%ADD32RoundRect,0.050000X0.900000X-0.800000X0.900000X0.800000X-0.900000X0.800000X-0.900000X-0.800000X0*%
%ADD33RoundRect,0.050000X-0.275000X-0.600000X0.275000X-0.600000X0.275000X0.600000X-0.275000X0.600000X0*%
%ADD34RoundRect,0.050000X-0.400000X0.750000X-0.400000X-0.750000X0.400000X-0.750000X0.400000X0.750000X0*%
%ADD35RoundRect,0.050000X-0.750000X-0.400000X0.750000X-0.400000X0.750000X0.400000X-0.750000X0.400000X0*%
%ADD36C,1.100000*%
%ADD37RoundRect,0.050000X0.500000X-0.500000X0.500000X0.500000X-0.500000X0.500000X-0.500000X-0.500000X0*%
%ADD38RoundRect,0.050000X0.300000X0.675000X-0.300000X0.675000X-0.300000X-0.675000X0.300000X-0.675000X0*%
%ADD39RoundRect,0.050000X0.600000X1.000000X-0.600000X1.000000X-0.600000X-1.000000X0.600000X-1.000000X0*%
%ADD40C,0.600000*%
%ADD41RoundRect,0.225000X-0.300000X0.225000X-0.300000X-0.225000X0.300000X-0.225000X0.300000X0.225000X0*%
%ADD42RoundRect,0.050000X0.300000X0.850000X-0.300000X0.850000X-0.300000X-0.850000X0.300000X-0.850000X0*%
%ADD43RoundRect,0.050000X0.500000X1.350000X-0.500000X1.350000X-0.500000X-1.350000X0.500000X-1.350000X0*%
%ADD44RoundRect,0.050000X-0.315000X-0.415000X0.315000X-0.415000X0.315000X0.415000X-0.315000X0.415000X0*%
%ADD45C,0.750000*%
%ADD46RoundRect,0.050000X0.500000X-0.150000X0.500000X0.150000X-0.500000X0.150000X-0.500000X-0.150000X0*%
%ADD47RoundRect,0.050000X-0.500000X0.150000X-0.500000X-0.150000X0.500000X-0.150000X0.500000X0.150000X0*%
%ADD48RoundRect,0.050000X0.500000X-0.300000X0.500000X0.300000X-0.500000X0.300000X-0.500000X-0.300000X0*%
%ADD49RoundRect,0.050000X-0.500000X0.300000X-0.500000X-0.300000X0.500000X-0.300000X0.500000X0.300000X0*%
%ADD50O,1.700000X1.100000*%
%ADD51O,2.200000X1.100000*%
%ADD52RoundRect,0.050000X0.350000X-0.150000X0.350000X0.150000X-0.350000X0.150000X-0.350000X-0.150000X0*%
G04 APERTURE END LIST*
D10*
%TO.C,BT1*%
G36*
X124101000Y108534645D02*
G01*
X121615645Y111020000D01*
X124101000Y111020000D01*
X124101000Y108534645D01*
G37*
G36*
X124096000Y105615000D02*
G01*
X119896000Y105615000D01*
X119896000Y107315000D01*
X124096000Y107315000D01*
X124096000Y105615000D01*
G37*
G36*
X124101000Y64854645D02*
G01*
X121615645Y67340000D01*
X124101000Y67340000D01*
X124101000Y64854645D01*
G37*
G36*
X124096000Y61935000D02*
G01*
X119896000Y61935000D01*
X119896000Y63635000D01*
X124096000Y63635000D01*
X124096000Y61935000D01*
G37*
G36*
X124101000Y21174645D02*
G01*
X121615645Y23660000D01*
X124101000Y23660000D01*
X124101000Y21174645D01*
G37*
G36*
X124096000Y18255000D02*
G01*
X119896000Y18255000D01*
X119896000Y19955000D01*
X124096000Y19955000D01*
X124096000Y18255000D01*
G37*
G36*
X69753000Y108534645D02*
G01*
X67267645Y111020000D01*
X69753000Y111020000D01*
X69753000Y108534645D01*
G37*
G36*
X69748000Y105615000D02*
G01*
X65548000Y105615000D01*
X65548000Y107315000D01*
X69748000Y107315000D01*
X69748000Y105615000D01*
G37*
G36*
X69753000Y64854645D02*
G01*
X67267645Y67340000D01*
X69753000Y67340000D01*
X69753000Y64854645D01*
G37*
G36*
X69748000Y61935000D02*
G01*
X65548000Y61935000D01*
X65548000Y63635000D01*
X69748000Y63635000D01*
X69748000Y61935000D01*
G37*
G36*
X69753000Y21174645D02*
G01*
X67267645Y23660000D01*
X69753000Y23660000D01*
X69753000Y21174645D01*
G37*
G36*
X69748000Y18255000D02*
G01*
X65548000Y18255000D01*
X65548000Y19955000D01*
X69748000Y19955000D01*
X69748000Y18255000D01*
G37*
G36*
X15405000Y108534645D02*
G01*
X12919645Y111020000D01*
X15405000Y111020000D01*
X15405000Y108534645D01*
G37*
G36*
X15400000Y105615000D02*
G01*
X11200000Y105615000D01*
X11200000Y107315000D01*
X15400000Y107315000D01*
X15400000Y105615000D01*
G37*
G36*
X15405000Y64854645D02*
G01*
X12919645Y67340000D01*
X15405000Y67340000D01*
X15405000Y64854645D01*
G37*
G36*
X15400000Y61935000D02*
G01*
X11200000Y61935000D01*
X11200000Y63635000D01*
X15400000Y63635000D01*
X15400000Y61935000D01*
G37*
G36*
X15405000Y21174645D02*
G01*
X12919645Y23660000D01*
X15405000Y23660000D01*
X15405000Y21174645D01*
G37*
G36*
X15400000Y18255000D02*
G01*
X11200000Y18255000D01*
X11200000Y19955000D01*
X15400000Y19955000D01*
X15400000Y18255000D01*
G37*
%TD*%
D11*
%TO.C,*%
X164631500Y128540000D03*
%TD*%
%TO.C,*%
X-5135500Y128540000D03*
%TD*%
%TO.C,*%
X-5135500Y2000000D03*
%TD*%
D12*
%TO.C,ST4*%
X111236000Y89900000D03*
%TD*%
%TO.C,ST4*%
X111236000Y46220000D03*
%TD*%
%TO.C,ST4*%
X111236000Y2540000D03*
%TD*%
%TO.C,ST4*%
X56888000Y89900000D03*
%TD*%
%TO.C,ST4*%
X56888000Y46220000D03*
%TD*%
%TO.C,ST4*%
X56888000Y2540000D03*
%TD*%
%TO.C,ST4*%
X2540000Y89900000D03*
%TD*%
%TO.C,ST4*%
X2540000Y46220000D03*
%TD*%
D13*
%TO.C,R7*%
X125651000Y108315000D03*
X127301000Y108315000D03*
%TD*%
%TO.C,R7*%
X125651000Y64635000D03*
X127301000Y64635000D03*
%TD*%
%TO.C,R7*%
X125651000Y20955000D03*
X127301000Y20955000D03*
%TD*%
%TO.C,R7*%
X71303000Y108315000D03*
X72953000Y108315000D03*
%TD*%
%TO.C,R7*%
X71303000Y64635000D03*
X72953000Y64635000D03*
%TD*%
%TO.C,R7*%
X71303000Y20955000D03*
X72953000Y20955000D03*
%TD*%
%TO.C,R7*%
X16955000Y108315000D03*
X18605000Y108315000D03*
%TD*%
%TO.C,R7*%
X16955000Y64635000D03*
X18605000Y64635000D03*
%TD*%
D12*
%TO.C,ST3*%
X111236000Y128000000D03*
%TD*%
%TO.C,ST3*%
X111236000Y84320000D03*
%TD*%
%TO.C,ST3*%
X111236000Y40640000D03*
%TD*%
%TO.C,ST3*%
X56888000Y128000000D03*
%TD*%
%TO.C,ST3*%
X56888000Y84320000D03*
%TD*%
%TO.C,ST3*%
X56888000Y40640000D03*
%TD*%
%TO.C,ST3*%
X2540000Y128000000D03*
%TD*%
%TO.C,ST3*%
X2540000Y84320000D03*
%TD*%
D14*
%TO.C,L1*%
X150606000Y119272500D03*
X150606000Y118312500D03*
%TD*%
%TO.C,L1*%
X150606000Y75592500D03*
X150606000Y74632500D03*
%TD*%
%TO.C,L1*%
X150606000Y31912500D03*
X150606000Y30952500D03*
%TD*%
%TO.C,L1*%
X96258000Y119272500D03*
X96258000Y118312500D03*
%TD*%
%TO.C,L1*%
X96258000Y75592500D03*
X96258000Y74632500D03*
%TD*%
%TO.C,L1*%
X96258000Y31912500D03*
X96258000Y30952500D03*
%TD*%
%TO.C,L1*%
X41910000Y119272500D03*
X41910000Y118312500D03*
%TD*%
%TO.C,L1*%
X41910000Y75592500D03*
X41910000Y74632500D03*
%TD*%
D15*
%TO.C,C3*%
X147748500Y120557500D03*
X147748500Y122107500D03*
%TD*%
%TO.C,C3*%
X147748500Y76877500D03*
X147748500Y78427500D03*
%TD*%
%TO.C,C3*%
X147748500Y33197500D03*
X147748500Y34747500D03*
%TD*%
%TO.C,C3*%
X93400500Y120557500D03*
X93400500Y122107500D03*
%TD*%
%TO.C,C3*%
X93400500Y76877500D03*
X93400500Y78427500D03*
%TD*%
%TO.C,C3*%
X93400500Y33197500D03*
X93400500Y34747500D03*
%TD*%
%TO.C,C3*%
X39052500Y120557500D03*
X39052500Y122107500D03*
%TD*%
%TO.C,C3*%
X39052500Y76877500D03*
X39052500Y78427500D03*
%TD*%
D13*
%TO.C,R9*%
X121206000Y94345000D03*
X122856000Y94345000D03*
%TD*%
%TO.C,R9*%
X121206000Y50665000D03*
X122856000Y50665000D03*
%TD*%
%TO.C,R9*%
X121206000Y6985000D03*
X122856000Y6985000D03*
%TD*%
%TO.C,R9*%
X66858000Y94345000D03*
X68508000Y94345000D03*
%TD*%
%TO.C,R9*%
X66858000Y50665000D03*
X68508000Y50665000D03*
%TD*%
%TO.C,R9*%
X66858000Y6985000D03*
X68508000Y6985000D03*
%TD*%
%TO.C,R9*%
X12510000Y94345000D03*
X14160000Y94345000D03*
%TD*%
%TO.C,R9*%
X12510000Y50665000D03*
X14160000Y50665000D03*
%TD*%
D16*
%TO.C,C13*%
X116811000Y96250000D03*
X118361000Y96250000D03*
%TD*%
%TO.C,C13*%
X116811000Y52570000D03*
X118361000Y52570000D03*
%TD*%
%TO.C,C13*%
X116811000Y8890000D03*
X118361000Y8890000D03*
%TD*%
%TO.C,C13*%
X62463000Y96250000D03*
X64013000Y96250000D03*
%TD*%
%TO.C,C13*%
X62463000Y52570000D03*
X64013000Y52570000D03*
%TD*%
%TO.C,C13*%
X62463000Y8890000D03*
X64013000Y8890000D03*
%TD*%
%TO.C,C13*%
X8115000Y96250000D03*
X9665000Y96250000D03*
%TD*%
%TO.C,C13*%
X8115000Y52570000D03*
X9665000Y52570000D03*
%TD*%
%TO.C,C1*%
X125701000Y94345000D03*
X127251000Y94345000D03*
%TD*%
%TO.C,C1*%
X125701000Y50665000D03*
X127251000Y50665000D03*
%TD*%
%TO.C,C1*%
X125701000Y6985000D03*
X127251000Y6985000D03*
%TD*%
%TO.C,C1*%
X71353000Y94345000D03*
X72903000Y94345000D03*
%TD*%
%TO.C,C1*%
X71353000Y50665000D03*
X72903000Y50665000D03*
%TD*%
%TO.C,C1*%
X71353000Y6985000D03*
X72903000Y6985000D03*
%TD*%
%TO.C,C1*%
X17005000Y94345000D03*
X18555000Y94345000D03*
%TD*%
%TO.C,C1*%
X17005000Y50665000D03*
X18555000Y50665000D03*
%TD*%
D17*
%TO.C,R6*%
X150923500Y120507500D03*
X150923500Y122157500D03*
%TD*%
%TO.C,R6*%
X150923500Y76827500D03*
X150923500Y78477500D03*
%TD*%
%TO.C,R6*%
X150923500Y33147500D03*
X150923500Y34797500D03*
%TD*%
%TO.C,R6*%
X96575500Y120507500D03*
X96575500Y122157500D03*
%TD*%
%TO.C,R6*%
X96575500Y76827500D03*
X96575500Y78477500D03*
%TD*%
%TO.C,R6*%
X96575500Y33147500D03*
X96575500Y34797500D03*
%TD*%
%TO.C,R6*%
X42227500Y120507500D03*
X42227500Y122157500D03*
%TD*%
%TO.C,R6*%
X42227500Y76827500D03*
X42227500Y78477500D03*
%TD*%
D18*
%TO.C,D9*%
X126946000Y120697500D03*
X125371000Y120697500D03*
%TD*%
%TO.C,D9*%
X126946000Y77017500D03*
X125371000Y77017500D03*
%TD*%
%TO.C,D9*%
X126946000Y33337500D03*
X125371000Y33337500D03*
%TD*%
%TO.C,D9*%
X72598000Y120697500D03*
X71023000Y120697500D03*
%TD*%
%TO.C,D9*%
X72598000Y77017500D03*
X71023000Y77017500D03*
%TD*%
%TO.C,D9*%
X72598000Y33337500D03*
X71023000Y33337500D03*
%TD*%
%TO.C,D9*%
X18250000Y120697500D03*
X16675000Y120697500D03*
%TD*%
%TO.C,D9*%
X18250000Y77017500D03*
X16675000Y77017500D03*
%TD*%
D19*
%TO.C,C14*%
X147748500Y97342500D03*
X147748500Y95792500D03*
%TD*%
%TO.C,C14*%
X147748500Y53662500D03*
X147748500Y52112500D03*
%TD*%
%TO.C,C14*%
X147748500Y9982500D03*
X147748500Y8432500D03*
%TD*%
%TO.C,C14*%
X93400500Y97342500D03*
X93400500Y95792500D03*
%TD*%
%TO.C,C14*%
X93400500Y53662500D03*
X93400500Y52112500D03*
%TD*%
%TO.C,C14*%
X93400500Y9982500D03*
X93400500Y8432500D03*
%TD*%
%TO.C,C14*%
X39052500Y97342500D03*
X39052500Y95792500D03*
%TD*%
%TO.C,C14*%
X39052500Y53662500D03*
X39052500Y52112500D03*
%TD*%
D20*
%TO.C,U1*%
X118536000Y106440100D03*
X117586000Y106440100D03*
X116636000Y106440100D03*
X116636000Y103839900D03*
X117586000Y103840000D03*
X118536000Y103839900D03*
%TD*%
%TO.C,U1*%
X118536000Y62760100D03*
X117586000Y62760100D03*
X116636000Y62760100D03*
X116636000Y60159900D03*
X117586000Y60160000D03*
X118536000Y60159900D03*
%TD*%
%TO.C,U1*%
X118536000Y19080100D03*
X117586000Y19080100D03*
X116636000Y19080100D03*
X116636000Y16479900D03*
X117586000Y16480000D03*
X118536000Y16479900D03*
%TD*%
%TO.C,U1*%
X64188000Y106440100D03*
X63238000Y106440100D03*
X62288000Y106440100D03*
X62288000Y103839900D03*
X63238000Y103840000D03*
X64188000Y103839900D03*
%TD*%
%TO.C,U1*%
X64188000Y62760100D03*
X63238000Y62760100D03*
X62288000Y62760100D03*
X62288000Y60159900D03*
X63238000Y60160000D03*
X64188000Y60159900D03*
%TD*%
%TO.C,U1*%
X64188000Y19080100D03*
X63238000Y19080100D03*
X62288000Y19080100D03*
X62288000Y16479900D03*
X63238000Y16480000D03*
X64188000Y16479900D03*
%TD*%
%TO.C,U1*%
X9840000Y106440100D03*
X8890000Y106440100D03*
X7940000Y106440100D03*
X7940000Y103839900D03*
X8890000Y103840000D03*
X9840000Y103839900D03*
%TD*%
%TO.C,U1*%
X9840000Y62760100D03*
X8890000Y62760100D03*
X7940000Y62760100D03*
X7940000Y60159900D03*
X8890000Y60160000D03*
X9840000Y60159900D03*
%TD*%
D21*
%TO.C,J4*%
X116086000Y92440000D03*
X117086000Y92440000D03*
X118086000Y92440000D03*
X119086000Y92440000D03*
D22*
X120386000Y88765000D03*
X114786000Y88765000D03*
%TD*%
D21*
%TO.C,J4*%
X116086000Y48760000D03*
X117086000Y48760000D03*
X118086000Y48760000D03*
X119086000Y48760000D03*
D22*
X120386000Y45085000D03*
X114786000Y45085000D03*
%TD*%
D21*
%TO.C,J4*%
X116086000Y5080000D03*
X117086000Y5080000D03*
X118086000Y5080000D03*
X119086000Y5080000D03*
D22*
X120386000Y1405000D03*
X114786000Y1405000D03*
%TD*%
D21*
%TO.C,J4*%
X61738000Y92440000D03*
X62738000Y92440000D03*
X63738000Y92440000D03*
X64738000Y92440000D03*
D22*
X66038000Y88765000D03*
X60438000Y88765000D03*
%TD*%
D21*
%TO.C,J4*%
X61738000Y48760000D03*
X62738000Y48760000D03*
X63738000Y48760000D03*
X64738000Y48760000D03*
D22*
X66038000Y45085000D03*
X60438000Y45085000D03*
%TD*%
D21*
%TO.C,J4*%
X61738000Y5080000D03*
X62738000Y5080000D03*
X63738000Y5080000D03*
X64738000Y5080000D03*
D22*
X66038000Y1405000D03*
X60438000Y1405000D03*
%TD*%
D21*
%TO.C,J4*%
X7390000Y92440000D03*
X8390000Y92440000D03*
X9390000Y92440000D03*
X10390000Y92440000D03*
D22*
X11690000Y88765000D03*
X6090000Y88765000D03*
%TD*%
D21*
%TO.C,J4*%
X7390000Y48760000D03*
X8390000Y48760000D03*
X9390000Y48760000D03*
X10390000Y48760000D03*
D22*
X11690000Y45085000D03*
X6090000Y45085000D03*
%TD*%
D18*
%TO.C,D8*%
X126946000Y117522500D03*
X125371000Y117522500D03*
%TD*%
%TO.C,D8*%
X126946000Y73842500D03*
X125371000Y73842500D03*
%TD*%
%TO.C,D8*%
X126946000Y30162500D03*
X125371000Y30162500D03*
%TD*%
%TO.C,D8*%
X72598000Y117522500D03*
X71023000Y117522500D03*
%TD*%
%TO.C,D8*%
X72598000Y73842500D03*
X71023000Y73842500D03*
%TD*%
%TO.C,D8*%
X72598000Y30162500D03*
X71023000Y30162500D03*
%TD*%
%TO.C,D8*%
X18250000Y117522500D03*
X16675000Y117522500D03*
%TD*%
%TO.C,D8*%
X18250000Y73842500D03*
X16675000Y73842500D03*
%TD*%
D23*
%TO.C,C6*%
X149181000Y118157500D03*
X148221000Y118157500D03*
%TD*%
%TO.C,C6*%
X149181000Y74477500D03*
X148221000Y74477500D03*
%TD*%
%TO.C,C6*%
X149181000Y30797500D03*
X148221000Y30797500D03*
%TD*%
%TO.C,C6*%
X94833000Y118157500D03*
X93873000Y118157500D03*
%TD*%
%TO.C,C6*%
X94833000Y74477500D03*
X93873000Y74477500D03*
%TD*%
%TO.C,C6*%
X94833000Y30797500D03*
X93873000Y30797500D03*
%TD*%
%TO.C,C6*%
X40485000Y118157500D03*
X39525000Y118157500D03*
%TD*%
%TO.C,C6*%
X40485000Y74477500D03*
X39525000Y74477500D03*
%TD*%
D24*
%TO.C,C10*%
X122806000Y103552500D03*
X121256000Y103552500D03*
%TD*%
%TO.C,C10*%
X122806000Y59872500D03*
X121256000Y59872500D03*
%TD*%
%TO.C,C10*%
X122806000Y16192500D03*
X121256000Y16192500D03*
%TD*%
%TO.C,C10*%
X68458000Y103552500D03*
X66908000Y103552500D03*
%TD*%
%TO.C,C10*%
X68458000Y59872500D03*
X66908000Y59872500D03*
%TD*%
%TO.C,C10*%
X68458000Y16192500D03*
X66908000Y16192500D03*
%TD*%
%TO.C,C10*%
X14110000Y103552500D03*
X12560000Y103552500D03*
%TD*%
%TO.C,C10*%
X14110000Y59872500D03*
X12560000Y59872500D03*
%TD*%
D16*
%TO.C,C12*%
X125383500Y113712500D03*
X126933500Y113712500D03*
%TD*%
%TO.C,C12*%
X125383500Y70032500D03*
X126933500Y70032500D03*
%TD*%
%TO.C,C12*%
X125383500Y26352500D03*
X126933500Y26352500D03*
%TD*%
%TO.C,C12*%
X71035500Y113712500D03*
X72585500Y113712500D03*
%TD*%
%TO.C,C12*%
X71035500Y70032500D03*
X72585500Y70032500D03*
%TD*%
%TO.C,C12*%
X71035500Y26352500D03*
X72585500Y26352500D03*
%TD*%
%TO.C,C12*%
X16687500Y113712500D03*
X18237500Y113712500D03*
%TD*%
%TO.C,C12*%
X16687500Y70032500D03*
X18237500Y70032500D03*
%TD*%
D25*
%TO.C,D10*%
X151558500Y98627500D03*
X151558500Y99587500D03*
%TD*%
%TO.C,D10*%
X151558500Y54947500D03*
X151558500Y55907500D03*
%TD*%
%TO.C,D10*%
X151558500Y11267500D03*
X151558500Y12227500D03*
%TD*%
%TO.C,D10*%
X97210500Y98627500D03*
X97210500Y99587500D03*
%TD*%
%TO.C,D10*%
X97210500Y54947500D03*
X97210500Y55907500D03*
%TD*%
%TO.C,D10*%
X97210500Y11267500D03*
X97210500Y12227500D03*
%TD*%
%TO.C,D10*%
X42862500Y98627500D03*
X42862500Y99587500D03*
%TD*%
%TO.C,D10*%
X42862500Y54947500D03*
X42862500Y55907500D03*
%TD*%
%TO.C,L2*%
X150606000Y98627500D03*
X150606000Y99587500D03*
%TD*%
%TO.C,L2*%
X150606000Y54947500D03*
X150606000Y55907500D03*
%TD*%
%TO.C,L2*%
X150606000Y11267500D03*
X150606000Y12227500D03*
%TD*%
%TO.C,L2*%
X96258000Y98627500D03*
X96258000Y99587500D03*
%TD*%
%TO.C,L2*%
X96258000Y54947500D03*
X96258000Y55907500D03*
%TD*%
%TO.C,L2*%
X96258000Y11267500D03*
X96258000Y12227500D03*
%TD*%
%TO.C,L2*%
X41910000Y98627500D03*
X41910000Y99587500D03*
%TD*%
%TO.C,L2*%
X41910000Y54947500D03*
X41910000Y55907500D03*
%TD*%
D26*
%TO.C,U4*%
X120068500Y101310000D03*
X120068500Y100810000D03*
X120068500Y100310000D03*
X120068500Y99810000D03*
X120068500Y99310000D03*
X120068500Y98810000D03*
D27*
X120781000Y98097500D03*
X121281000Y98097500D03*
X121781000Y98097500D03*
X122281000Y98097500D03*
X122781000Y98097500D03*
X123281000Y98097500D03*
D26*
X123993500Y98810000D03*
X123993500Y99310000D03*
X123993500Y99810000D03*
X123993500Y100310000D03*
X123993500Y100810000D03*
X123993500Y101310000D03*
D27*
X123281000Y102022500D03*
X122781000Y102022500D03*
X122281000Y102022500D03*
X121781000Y102022500D03*
X121281000Y102022500D03*
X120781000Y102022500D03*
D28*
X122031000Y100060000D03*
%TD*%
D26*
%TO.C,U4*%
X120068500Y57630000D03*
X120068500Y57130000D03*
X120068500Y56630000D03*
X120068500Y56130000D03*
X120068500Y55630000D03*
X120068500Y55130000D03*
D27*
X120781000Y54417500D03*
X121281000Y54417500D03*
X121781000Y54417500D03*
X122281000Y54417500D03*
X122781000Y54417500D03*
X123281000Y54417500D03*
D26*
X123993500Y55130000D03*
X123993500Y55630000D03*
X123993500Y56130000D03*
X123993500Y56630000D03*
X123993500Y57130000D03*
X123993500Y57630000D03*
D27*
X123281000Y58342500D03*
X122781000Y58342500D03*
X122281000Y58342500D03*
X121781000Y58342500D03*
X121281000Y58342500D03*
X120781000Y58342500D03*
D28*
X122031000Y56380000D03*
%TD*%
D26*
%TO.C,U4*%
X120068500Y13950000D03*
X120068500Y13450000D03*
X120068500Y12950000D03*
X120068500Y12450000D03*
X120068500Y11950000D03*
X120068500Y11450000D03*
D27*
X120781000Y10737500D03*
X121281000Y10737500D03*
X121781000Y10737500D03*
X122281000Y10737500D03*
X122781000Y10737500D03*
X123281000Y10737500D03*
D26*
X123993500Y11450000D03*
X123993500Y11950000D03*
X123993500Y12450000D03*
X123993500Y12950000D03*
X123993500Y13450000D03*
X123993500Y13950000D03*
D27*
X123281000Y14662500D03*
X122781000Y14662500D03*
X122281000Y14662500D03*
X121781000Y14662500D03*
X121281000Y14662500D03*
X120781000Y14662500D03*
D28*
X122031000Y12700000D03*
%TD*%
D26*
%TO.C,U4*%
X65720500Y101310000D03*
X65720500Y100810000D03*
X65720500Y100310000D03*
X65720500Y99810000D03*
X65720500Y99310000D03*
X65720500Y98810000D03*
D27*
X66433000Y98097500D03*
X66933000Y98097500D03*
X67433000Y98097500D03*
X67933000Y98097500D03*
X68433000Y98097500D03*
X68933000Y98097500D03*
D26*
X69645500Y98810000D03*
X69645500Y99310000D03*
X69645500Y99810000D03*
X69645500Y100310000D03*
X69645500Y100810000D03*
X69645500Y101310000D03*
D27*
X68933000Y102022500D03*
X68433000Y102022500D03*
X67933000Y102022500D03*
X67433000Y102022500D03*
X66933000Y102022500D03*
X66433000Y102022500D03*
D28*
X67683000Y100060000D03*
%TD*%
D26*
%TO.C,U4*%
X65720500Y57630000D03*
X65720500Y57130000D03*
X65720500Y56630000D03*
X65720500Y56130000D03*
X65720500Y55630000D03*
X65720500Y55130000D03*
D27*
X66433000Y54417500D03*
X66933000Y54417500D03*
X67433000Y54417500D03*
X67933000Y54417500D03*
X68433000Y54417500D03*
X68933000Y54417500D03*
D26*
X69645500Y55130000D03*
X69645500Y55630000D03*
X69645500Y56130000D03*
X69645500Y56630000D03*
X69645500Y57130000D03*
X69645500Y57630000D03*
D27*
X68933000Y58342500D03*
X68433000Y58342500D03*
X67933000Y58342500D03*
X67433000Y58342500D03*
X66933000Y58342500D03*
X66433000Y58342500D03*
D28*
X67683000Y56380000D03*
%TD*%
D26*
%TO.C,U4*%
X65720500Y13950000D03*
X65720500Y13450000D03*
X65720500Y12950000D03*
X65720500Y12450000D03*
X65720500Y11950000D03*
X65720500Y11450000D03*
D27*
X66433000Y10737500D03*
X66933000Y10737500D03*
X67433000Y10737500D03*
X67933000Y10737500D03*
X68433000Y10737500D03*
X68933000Y10737500D03*
D26*
X69645500Y11450000D03*
X69645500Y11950000D03*
X69645500Y12450000D03*
X69645500Y12950000D03*
X69645500Y13450000D03*
X69645500Y13950000D03*
D27*
X68933000Y14662500D03*
X68433000Y14662500D03*
X67933000Y14662500D03*
X67433000Y14662500D03*
X66933000Y14662500D03*
X66433000Y14662500D03*
D28*
X67683000Y12700000D03*
%TD*%
D26*
%TO.C,U4*%
X11372500Y101310000D03*
X11372500Y100810000D03*
X11372500Y100310000D03*
X11372500Y99810000D03*
X11372500Y99310000D03*
X11372500Y98810000D03*
D27*
X12085000Y98097500D03*
X12585000Y98097500D03*
X13085000Y98097500D03*
X13585000Y98097500D03*
X14085000Y98097500D03*
X14585000Y98097500D03*
D26*
X15297500Y98810000D03*
X15297500Y99310000D03*
X15297500Y99810000D03*
X15297500Y100310000D03*
X15297500Y100810000D03*
X15297500Y101310000D03*
D27*
X14585000Y102022500D03*
X14085000Y102022500D03*
X13585000Y102022500D03*
X13085000Y102022500D03*
X12585000Y102022500D03*
X12085000Y102022500D03*
D28*
X13335000Y100060000D03*
%TD*%
D26*
%TO.C,U4*%
X11372500Y57630000D03*
X11372500Y57130000D03*
X11372500Y56630000D03*
X11372500Y56130000D03*
X11372500Y55630000D03*
X11372500Y55130000D03*
D27*
X12085000Y54417500D03*
X12585000Y54417500D03*
X13085000Y54417500D03*
X13585000Y54417500D03*
X14085000Y54417500D03*
X14585000Y54417500D03*
D26*
X15297500Y55130000D03*
X15297500Y55630000D03*
X15297500Y56130000D03*
X15297500Y56630000D03*
X15297500Y57130000D03*
X15297500Y57630000D03*
D27*
X14585000Y58342500D03*
X14085000Y58342500D03*
X13585000Y58342500D03*
X13085000Y58342500D03*
X12585000Y58342500D03*
X12085000Y58342500D03*
D28*
X13335000Y56380000D03*
%TD*%
D29*
%TO.C,R10*%
X123491000Y117522500D03*
X121841000Y117522500D03*
%TD*%
%TO.C,R10*%
X123491000Y73842500D03*
X121841000Y73842500D03*
%TD*%
%TO.C,R10*%
X123491000Y30162500D03*
X121841000Y30162500D03*
%TD*%
%TO.C,R10*%
X69143000Y117522500D03*
X67493000Y117522500D03*
%TD*%
%TO.C,R10*%
X69143000Y73842500D03*
X67493000Y73842500D03*
%TD*%
%TO.C,R10*%
X69143000Y30162500D03*
X67493000Y30162500D03*
%TD*%
%TO.C,R10*%
X14795000Y117522500D03*
X13145000Y117522500D03*
%TD*%
%TO.C,R10*%
X14795000Y73842500D03*
X13145000Y73842500D03*
%TD*%
%TO.C,R11*%
X123491000Y120697500D03*
X121841000Y120697500D03*
%TD*%
%TO.C,R11*%
X123491000Y77017500D03*
X121841000Y77017500D03*
%TD*%
%TO.C,R11*%
X123491000Y33337500D03*
X121841000Y33337500D03*
%TD*%
%TO.C,R11*%
X69143000Y120697500D03*
X67493000Y120697500D03*
%TD*%
%TO.C,R11*%
X69143000Y77017500D03*
X67493000Y77017500D03*
%TD*%
%TO.C,R11*%
X69143000Y33337500D03*
X67493000Y33337500D03*
%TD*%
%TO.C,R11*%
X14795000Y120697500D03*
X13145000Y120697500D03*
%TD*%
%TO.C,R11*%
X14795000Y77017500D03*
X13145000Y77017500D03*
%TD*%
D30*
%TO.C,J3*%
X157114750Y99425000D03*
X157114750Y101965000D03*
X157114750Y96885000D03*
%TD*%
%TO.C,J3*%
X157114750Y55745000D03*
X157114750Y58285000D03*
X157114750Y53205000D03*
%TD*%
%TO.C,J3*%
X157114750Y12065000D03*
X157114750Y14605000D03*
X157114750Y9525000D03*
%TD*%
%TO.C,J3*%
X102766750Y99425000D03*
X102766750Y101965000D03*
X102766750Y96885000D03*
%TD*%
%TO.C,J3*%
X102766750Y55745000D03*
X102766750Y58285000D03*
X102766750Y53205000D03*
%TD*%
%TO.C,J3*%
X102766750Y12065000D03*
X102766750Y14605000D03*
X102766750Y9525000D03*
%TD*%
%TO.C,J3*%
X48418750Y99425000D03*
X48418750Y101965000D03*
X48418750Y96885000D03*
%TD*%
%TO.C,J3*%
X48418750Y55745000D03*
X48418750Y58285000D03*
X48418750Y53205000D03*
%TD*%
D16*
%TO.C,C7*%
X121256000Y96250000D03*
X122806000Y96250000D03*
%TD*%
%TO.C,C7*%
X121256000Y52570000D03*
X122806000Y52570000D03*
%TD*%
%TO.C,C7*%
X121256000Y8890000D03*
X122806000Y8890000D03*
%TD*%
%TO.C,C7*%
X66908000Y96250000D03*
X68458000Y96250000D03*
%TD*%
%TO.C,C7*%
X66908000Y52570000D03*
X68458000Y52570000D03*
%TD*%
%TO.C,C7*%
X66908000Y8890000D03*
X68458000Y8890000D03*
%TD*%
%TO.C,C7*%
X12560000Y96250000D03*
X14110000Y96250000D03*
%TD*%
%TO.C,C7*%
X12560000Y52570000D03*
X14110000Y52570000D03*
%TD*%
D31*
%TO.C,J10*%
X132826000Y88630000D03*
X135366000Y88630000D03*
X137906000Y88630000D03*
X140446000Y88630000D03*
X142986000Y88630000D03*
X145526000Y88630000D03*
%TD*%
%TO.C,J10*%
X132826000Y44950000D03*
X135366000Y44950000D03*
X137906000Y44950000D03*
X140446000Y44950000D03*
X142986000Y44950000D03*
X145526000Y44950000D03*
%TD*%
%TO.C,J10*%
X132826000Y1270000D03*
X135366000Y1270000D03*
X137906000Y1270000D03*
X140446000Y1270000D03*
X142986000Y1270000D03*
X145526000Y1270000D03*
%TD*%
%TO.C,J10*%
X78478000Y88630000D03*
X81018000Y88630000D03*
X83558000Y88630000D03*
X86098000Y88630000D03*
X88638000Y88630000D03*
X91178000Y88630000D03*
%TD*%
%TO.C,J10*%
X78478000Y44950000D03*
X81018000Y44950000D03*
X83558000Y44950000D03*
X86098000Y44950000D03*
X88638000Y44950000D03*
X91178000Y44950000D03*
%TD*%
%TO.C,J10*%
X78478000Y1270000D03*
X81018000Y1270000D03*
X83558000Y1270000D03*
X86098000Y1270000D03*
X88638000Y1270000D03*
X91178000Y1270000D03*
%TD*%
%TO.C,J10*%
X24130000Y88630000D03*
X26670000Y88630000D03*
X29210000Y88630000D03*
X31750000Y88630000D03*
X34290000Y88630000D03*
X36830000Y88630000D03*
%TD*%
%TO.C,J10*%
X24130000Y44950000D03*
X26670000Y44950000D03*
X29210000Y44950000D03*
X31750000Y44950000D03*
X34290000Y44950000D03*
X36830000Y44950000D03*
%TD*%
D32*
%TO.C,F1*%
X117586000Y98660000D03*
X117586000Y101460000D03*
%TD*%
%TO.C,F1*%
X117586000Y54980000D03*
X117586000Y57780000D03*
%TD*%
%TO.C,F1*%
X117586000Y11300000D03*
X117586000Y14100000D03*
%TD*%
%TO.C,F1*%
X63238000Y98660000D03*
X63238000Y101460000D03*
%TD*%
%TO.C,F1*%
X63238000Y54980000D03*
X63238000Y57780000D03*
%TD*%
%TO.C,F1*%
X63238000Y11300000D03*
X63238000Y14100000D03*
%TD*%
%TO.C,F1*%
X8890000Y98660000D03*
X8890000Y101460000D03*
%TD*%
%TO.C,F1*%
X8890000Y54980000D03*
X8890000Y57780000D03*
%TD*%
D24*
%TO.C,C8*%
X127251000Y104505000D03*
X125701000Y104505000D03*
%TD*%
%TO.C,C8*%
X127251000Y60825000D03*
X125701000Y60825000D03*
%TD*%
%TO.C,C8*%
X127251000Y17145000D03*
X125701000Y17145000D03*
%TD*%
%TO.C,C8*%
X72903000Y104505000D03*
X71353000Y104505000D03*
%TD*%
%TO.C,C8*%
X72903000Y60825000D03*
X71353000Y60825000D03*
%TD*%
%TO.C,C8*%
X72903000Y17145000D03*
X71353000Y17145000D03*
%TD*%
%TO.C,C8*%
X18555000Y104505000D03*
X17005000Y104505000D03*
%TD*%
%TO.C,C8*%
X18555000Y60825000D03*
X17005000Y60825000D03*
%TD*%
D15*
%TO.C,C4*%
X149336000Y120557500D03*
X149336000Y122107500D03*
%TD*%
%TO.C,C4*%
X149336000Y76877500D03*
X149336000Y78427500D03*
%TD*%
%TO.C,C4*%
X149336000Y33197500D03*
X149336000Y34747500D03*
%TD*%
%TO.C,C4*%
X94988000Y120557500D03*
X94988000Y122107500D03*
%TD*%
%TO.C,C4*%
X94988000Y76877500D03*
X94988000Y78427500D03*
%TD*%
%TO.C,C4*%
X94988000Y33197500D03*
X94988000Y34747500D03*
%TD*%
%TO.C,C4*%
X40640000Y120557500D03*
X40640000Y122107500D03*
%TD*%
%TO.C,C4*%
X40640000Y76877500D03*
X40640000Y78427500D03*
%TD*%
D33*
%TO.C,U2*%
X125526000Y96219900D03*
X126476000Y96219900D03*
X127426000Y96219900D03*
X127426000Y98820100D03*
X125526000Y98820100D03*
%TD*%
%TO.C,U2*%
X125526000Y52539900D03*
X126476000Y52539900D03*
X127426000Y52539900D03*
X127426000Y55140100D03*
X125526000Y55140100D03*
%TD*%
%TO.C,U2*%
X125526000Y8859900D03*
X126476000Y8859900D03*
X127426000Y8859900D03*
X127426000Y11460100D03*
X125526000Y11460100D03*
%TD*%
%TO.C,U2*%
X71178000Y96219900D03*
X72128000Y96219900D03*
X73078000Y96219900D03*
X73078000Y98820100D03*
X71178000Y98820100D03*
%TD*%
%TO.C,U2*%
X71178000Y52539900D03*
X72128000Y52539900D03*
X73078000Y52539900D03*
X73078000Y55140100D03*
X71178000Y55140100D03*
%TD*%
%TO.C,U2*%
X71178000Y8859900D03*
X72128000Y8859900D03*
X73078000Y8859900D03*
X73078000Y11460100D03*
X71178000Y11460100D03*
%TD*%
%TO.C,U2*%
X16830000Y96219900D03*
X17780000Y96219900D03*
X18730000Y96219900D03*
X18730000Y98820100D03*
X16830000Y98820100D03*
%TD*%
%TO.C,U2*%
X16830000Y52539900D03*
X17780000Y52539900D03*
X18730000Y52539900D03*
X18730000Y55140100D03*
X16830000Y55140100D03*
%TD*%
D34*
%TO.C,U3*%
X149336000Y115900000D03*
X148066000Y115900000D03*
X146796000Y115900000D03*
X145526000Y115900000D03*
X144256000Y115900000D03*
X142986000Y115900000D03*
X141716000Y115900000D03*
X140446000Y115900000D03*
X139176000Y115900000D03*
X137906000Y115900000D03*
X136636000Y115900000D03*
X135366000Y115900000D03*
X134096000Y115900000D03*
D35*
X132266000Y115300000D03*
X132266000Y114030000D03*
X132266000Y112760000D03*
X132266000Y111490000D03*
X132266000Y110220000D03*
X132266000Y108950000D03*
X132266000Y107680000D03*
X132266000Y106410000D03*
X132266000Y105140000D03*
X132266000Y103870000D03*
X132266000Y102600000D03*
D34*
X134096000Y102000000D03*
X135366000Y102000000D03*
X136636000Y102000000D03*
X137906000Y102000000D03*
X139176000Y102000000D03*
X140446000Y102000000D03*
X141716000Y102000000D03*
X142986000Y102000000D03*
X144256000Y102000000D03*
X145526000Y102000000D03*
X146796000Y102000000D03*
X148066000Y102000000D03*
X149336000Y102000000D03*
D35*
X151166000Y102600000D03*
X151166000Y103870000D03*
X151166000Y105140000D03*
X151166000Y106410000D03*
X151166000Y107680000D03*
X151166000Y108950000D03*
X151166000Y110220000D03*
X151166000Y111490000D03*
X151166000Y112760000D03*
X151166000Y114030000D03*
X151166000Y115300000D03*
D36*
X148016000Y113150000D03*
D37*
X145916000Y113150000D03*
X143816000Y113150000D03*
X141716000Y113150000D03*
X139616000Y113150000D03*
X137516000Y113150000D03*
X135416000Y113150000D03*
X148016000Y111050000D03*
X145916000Y111050000D03*
X143816000Y111050000D03*
X141716000Y111050000D03*
X139616000Y111050000D03*
X137516000Y111050000D03*
X135416000Y111050000D03*
X148016000Y108950000D03*
X145916000Y108950000D03*
X143816000Y108950000D03*
X141716000Y108950000D03*
X139616000Y108950000D03*
X137516000Y108950000D03*
X135416000Y108950000D03*
X148016000Y106850000D03*
X145916000Y106850000D03*
X143816000Y106850000D03*
X141716000Y106850000D03*
X139616000Y106850000D03*
X137516000Y106850000D03*
X135416000Y106850000D03*
X148016000Y104850000D03*
X145916000Y104850000D03*
X143816000Y104850000D03*
X141716000Y104850000D03*
X139616000Y104850000D03*
X137516000Y104850000D03*
X135416000Y104850000D03*
%TD*%
D34*
%TO.C,U3*%
X149336000Y72220000D03*
X148066000Y72220000D03*
X146796000Y72220000D03*
X145526000Y72220000D03*
X144256000Y72220000D03*
X142986000Y72220000D03*
X141716000Y72220000D03*
X140446000Y72220000D03*
X139176000Y72220000D03*
X137906000Y72220000D03*
X136636000Y72220000D03*
X135366000Y72220000D03*
X134096000Y72220000D03*
D35*
X132266000Y71620000D03*
X132266000Y70350000D03*
X132266000Y69080000D03*
X132266000Y67810000D03*
X132266000Y66540000D03*
X132266000Y65270000D03*
X132266000Y64000000D03*
X132266000Y62730000D03*
X132266000Y61460000D03*
X132266000Y60190000D03*
X132266000Y58920000D03*
D34*
X134096000Y58320000D03*
X135366000Y58320000D03*
X136636000Y58320000D03*
X137906000Y58320000D03*
X139176000Y58320000D03*
X140446000Y58320000D03*
X141716000Y58320000D03*
X142986000Y58320000D03*
X144256000Y58320000D03*
X145526000Y58320000D03*
X146796000Y58320000D03*
X148066000Y58320000D03*
X149336000Y58320000D03*
D35*
X151166000Y58920000D03*
X151166000Y60190000D03*
X151166000Y61460000D03*
X151166000Y62730000D03*
X151166000Y64000000D03*
X151166000Y65270000D03*
X151166000Y66540000D03*
X151166000Y67810000D03*
X151166000Y69080000D03*
X151166000Y70350000D03*
X151166000Y71620000D03*
D36*
X148016000Y69470000D03*
D37*
X145916000Y69470000D03*
X143816000Y69470000D03*
X141716000Y69470000D03*
X139616000Y69470000D03*
X137516000Y69470000D03*
X135416000Y69470000D03*
X148016000Y67370000D03*
X145916000Y67370000D03*
X143816000Y67370000D03*
X141716000Y67370000D03*
X139616000Y67370000D03*
X137516000Y67370000D03*
X135416000Y67370000D03*
X148016000Y65270000D03*
X145916000Y65270000D03*
X143816000Y65270000D03*
X141716000Y65270000D03*
X139616000Y65270000D03*
X137516000Y65270000D03*
X135416000Y65270000D03*
X148016000Y63170000D03*
X145916000Y63170000D03*
X143816000Y63170000D03*
X141716000Y63170000D03*
X139616000Y63170000D03*
X137516000Y63170000D03*
X135416000Y63170000D03*
X148016000Y61170000D03*
X145916000Y61170000D03*
X143816000Y61170000D03*
X141716000Y61170000D03*
X139616000Y61170000D03*
X137516000Y61170000D03*
X135416000Y61170000D03*
%TD*%
D34*
%TO.C,U3*%
X149336000Y28540000D03*
X148066000Y28540000D03*
X146796000Y28540000D03*
X145526000Y28540000D03*
X144256000Y28540000D03*
X142986000Y28540000D03*
X141716000Y28540000D03*
X140446000Y28540000D03*
X139176000Y28540000D03*
X137906000Y28540000D03*
X136636000Y28540000D03*
X135366000Y28540000D03*
X134096000Y28540000D03*
D35*
X132266000Y27940000D03*
X132266000Y26670000D03*
X132266000Y25400000D03*
X132266000Y24130000D03*
X132266000Y22860000D03*
X132266000Y21590000D03*
X132266000Y20320000D03*
X132266000Y19050000D03*
X132266000Y17780000D03*
X132266000Y16510000D03*
X132266000Y15240000D03*
D34*
X134096000Y14640000D03*
X135366000Y14640000D03*
X136636000Y14640000D03*
X137906000Y14640000D03*
X139176000Y14640000D03*
X140446000Y14640000D03*
X141716000Y14640000D03*
X142986000Y14640000D03*
X144256000Y14640000D03*
X145526000Y14640000D03*
X146796000Y14640000D03*
X148066000Y14640000D03*
X149336000Y14640000D03*
D35*
X151166000Y15240000D03*
X151166000Y16510000D03*
X151166000Y17780000D03*
X151166000Y19050000D03*
X151166000Y20320000D03*
X151166000Y21590000D03*
X151166000Y22860000D03*
X151166000Y24130000D03*
X151166000Y25400000D03*
X151166000Y26670000D03*
X151166000Y27940000D03*
D36*
X148016000Y25790000D03*
D37*
X145916000Y25790000D03*
X143816000Y25790000D03*
X141716000Y25790000D03*
X139616000Y25790000D03*
X137516000Y25790000D03*
X135416000Y25790000D03*
X148016000Y23690000D03*
X145916000Y23690000D03*
X143816000Y23690000D03*
X141716000Y23690000D03*
X139616000Y23690000D03*
X137516000Y23690000D03*
X135416000Y23690000D03*
X148016000Y21590000D03*
X145916000Y21590000D03*
X143816000Y21590000D03*
X141716000Y21590000D03*
X139616000Y21590000D03*
X137516000Y21590000D03*
X135416000Y21590000D03*
X148016000Y19490000D03*
X145916000Y19490000D03*
X143816000Y19490000D03*
X141716000Y19490000D03*
X139616000Y19490000D03*
X137516000Y19490000D03*
X135416000Y19490000D03*
X148016000Y17490000D03*
X145916000Y17490000D03*
X143816000Y17490000D03*
X141716000Y17490000D03*
X139616000Y17490000D03*
X137516000Y17490000D03*
X135416000Y17490000D03*
%TD*%
D34*
%TO.C,U3*%
X94988000Y115900000D03*
X93718000Y115900000D03*
X92448000Y115900000D03*
X91178000Y115900000D03*
X89908000Y115900000D03*
X88638000Y115900000D03*
X87368000Y115900000D03*
X86098000Y115900000D03*
X84828000Y115900000D03*
X83558000Y115900000D03*
X82288000Y115900000D03*
X81018000Y115900000D03*
X79748000Y115900000D03*
D35*
X77918000Y115300000D03*
X77918000Y114030000D03*
X77918000Y112760000D03*
X77918000Y111490000D03*
X77918000Y110220000D03*
X77918000Y108950000D03*
X77918000Y107680000D03*
X77918000Y106410000D03*
X77918000Y105140000D03*
X77918000Y103870000D03*
X77918000Y102600000D03*
D34*
X79748000Y102000000D03*
X81018000Y102000000D03*
X82288000Y102000000D03*
X83558000Y102000000D03*
X84828000Y102000000D03*
X86098000Y102000000D03*
X87368000Y102000000D03*
X88638000Y102000000D03*
X89908000Y102000000D03*
X91178000Y102000000D03*
X92448000Y102000000D03*
X93718000Y102000000D03*
X94988000Y102000000D03*
D35*
X96818000Y102600000D03*
X96818000Y103870000D03*
X96818000Y105140000D03*
X96818000Y106410000D03*
X96818000Y107680000D03*
X96818000Y108950000D03*
X96818000Y110220000D03*
X96818000Y111490000D03*
X96818000Y112760000D03*
X96818000Y114030000D03*
X96818000Y115300000D03*
D36*
X93668000Y113150000D03*
D37*
X91568000Y113150000D03*
X89468000Y113150000D03*
X87368000Y113150000D03*
X85268000Y113150000D03*
X83168000Y113150000D03*
X81068000Y113150000D03*
X93668000Y111050000D03*
X91568000Y111050000D03*
X89468000Y111050000D03*
X87368000Y111050000D03*
X85268000Y111050000D03*
X83168000Y111050000D03*
X81068000Y111050000D03*
X93668000Y108950000D03*
X91568000Y108950000D03*
X89468000Y108950000D03*
X87368000Y108950000D03*
X85268000Y108950000D03*
X83168000Y108950000D03*
X81068000Y108950000D03*
X93668000Y106850000D03*
X91568000Y106850000D03*
X89468000Y106850000D03*
X87368000Y106850000D03*
X85268000Y106850000D03*
X83168000Y106850000D03*
X81068000Y106850000D03*
X93668000Y104850000D03*
X91568000Y104850000D03*
X89468000Y104850000D03*
X87368000Y104850000D03*
X85268000Y104850000D03*
X83168000Y104850000D03*
X81068000Y104850000D03*
%TD*%
D34*
%TO.C,U3*%
X94988000Y72220000D03*
X93718000Y72220000D03*
X92448000Y72220000D03*
X91178000Y72220000D03*
X89908000Y72220000D03*
X88638000Y72220000D03*
X87368000Y72220000D03*
X86098000Y72220000D03*
X84828000Y72220000D03*
X83558000Y72220000D03*
X82288000Y72220000D03*
X81018000Y72220000D03*
X79748000Y72220000D03*
D35*
X77918000Y71620000D03*
X77918000Y70350000D03*
X77918000Y69080000D03*
X77918000Y67810000D03*
X77918000Y66540000D03*
X77918000Y65270000D03*
X77918000Y64000000D03*
X77918000Y62730000D03*
X77918000Y61460000D03*
X77918000Y60190000D03*
X77918000Y58920000D03*
D34*
X79748000Y58320000D03*
X81018000Y58320000D03*
X82288000Y58320000D03*
X83558000Y58320000D03*
X84828000Y58320000D03*
X86098000Y58320000D03*
X87368000Y58320000D03*
X88638000Y58320000D03*
X89908000Y58320000D03*
X91178000Y58320000D03*
X92448000Y58320000D03*
X93718000Y58320000D03*
X94988000Y58320000D03*
D35*
X96818000Y58920000D03*
X96818000Y60190000D03*
X96818000Y61460000D03*
X96818000Y62730000D03*
X96818000Y64000000D03*
X96818000Y65270000D03*
X96818000Y66540000D03*
X96818000Y67810000D03*
X96818000Y69080000D03*
X96818000Y70350000D03*
X96818000Y71620000D03*
D36*
X93668000Y69470000D03*
D37*
X91568000Y69470000D03*
X89468000Y69470000D03*
X87368000Y69470000D03*
X85268000Y69470000D03*
X83168000Y69470000D03*
X81068000Y69470000D03*
X93668000Y67370000D03*
X91568000Y67370000D03*
X89468000Y67370000D03*
X87368000Y67370000D03*
X85268000Y67370000D03*
X83168000Y67370000D03*
X81068000Y67370000D03*
X93668000Y65270000D03*
X91568000Y65270000D03*
X89468000Y65270000D03*
X87368000Y65270000D03*
X85268000Y65270000D03*
X83168000Y65270000D03*
X81068000Y65270000D03*
X93668000Y63170000D03*
X91568000Y63170000D03*
X89468000Y63170000D03*
X87368000Y63170000D03*
X85268000Y63170000D03*
X83168000Y63170000D03*
X81068000Y63170000D03*
X93668000Y61170000D03*
X91568000Y61170000D03*
X89468000Y61170000D03*
X87368000Y61170000D03*
X85268000Y61170000D03*
X83168000Y61170000D03*
X81068000Y61170000D03*
%TD*%
D34*
%TO.C,U3*%
X94988000Y28540000D03*
X93718000Y28540000D03*
X92448000Y28540000D03*
X91178000Y28540000D03*
X89908000Y28540000D03*
X88638000Y28540000D03*
X87368000Y28540000D03*
X86098000Y28540000D03*
X84828000Y28540000D03*
X83558000Y28540000D03*
X82288000Y28540000D03*
X81018000Y28540000D03*
X79748000Y28540000D03*
D35*
X77918000Y27940000D03*
X77918000Y26670000D03*
X77918000Y25400000D03*
X77918000Y24130000D03*
X77918000Y22860000D03*
X77918000Y21590000D03*
X77918000Y20320000D03*
X77918000Y19050000D03*
X77918000Y17780000D03*
X77918000Y16510000D03*
X77918000Y15240000D03*
D34*
X79748000Y14640000D03*
X81018000Y14640000D03*
X82288000Y14640000D03*
X83558000Y14640000D03*
X84828000Y14640000D03*
X86098000Y14640000D03*
X87368000Y14640000D03*
X88638000Y14640000D03*
X89908000Y14640000D03*
X91178000Y14640000D03*
X92448000Y14640000D03*
X93718000Y14640000D03*
X94988000Y14640000D03*
D35*
X96818000Y15240000D03*
X96818000Y16510000D03*
X96818000Y17780000D03*
X96818000Y19050000D03*
X96818000Y20320000D03*
X96818000Y21590000D03*
X96818000Y22860000D03*
X96818000Y24130000D03*
X96818000Y25400000D03*
X96818000Y26670000D03*
X96818000Y27940000D03*
D36*
X93668000Y25790000D03*
D37*
X91568000Y25790000D03*
X89468000Y25790000D03*
X87368000Y25790000D03*
X85268000Y25790000D03*
X83168000Y25790000D03*
X81068000Y25790000D03*
X93668000Y23690000D03*
X91568000Y23690000D03*
X89468000Y23690000D03*
X87368000Y23690000D03*
X85268000Y23690000D03*
X83168000Y23690000D03*
X81068000Y23690000D03*
X93668000Y21590000D03*
X91568000Y21590000D03*
X89468000Y21590000D03*
X87368000Y21590000D03*
X85268000Y21590000D03*
X83168000Y21590000D03*
X81068000Y21590000D03*
X93668000Y19490000D03*
X91568000Y19490000D03*
X89468000Y19490000D03*
X87368000Y19490000D03*
X85268000Y19490000D03*
X83168000Y19490000D03*
X81068000Y19490000D03*
X93668000Y17490000D03*
X91568000Y17490000D03*
X89468000Y17490000D03*
X87368000Y17490000D03*
X85268000Y17490000D03*
X83168000Y17490000D03*
X81068000Y17490000D03*
%TD*%
D34*
%TO.C,U3*%
X40640000Y115900000D03*
X39370000Y115900000D03*
X38100000Y115900000D03*
X36830000Y115900000D03*
X35560000Y115900000D03*
X34290000Y115900000D03*
X33020000Y115900000D03*
X31750000Y115900000D03*
X30480000Y115900000D03*
X29210000Y115900000D03*
X27940000Y115900000D03*
X26670000Y115900000D03*
X25400000Y115900000D03*
D35*
X23570000Y115300000D03*
X23570000Y114030000D03*
X23570000Y112760000D03*
X23570000Y111490000D03*
X23570000Y110220000D03*
X23570000Y108950000D03*
X23570000Y107680000D03*
X23570000Y106410000D03*
X23570000Y105140000D03*
X23570000Y103870000D03*
X23570000Y102600000D03*
D34*
X25400000Y102000000D03*
X26670000Y102000000D03*
X27940000Y102000000D03*
X29210000Y102000000D03*
X30480000Y102000000D03*
X31750000Y102000000D03*
X33020000Y102000000D03*
X34290000Y102000000D03*
X35560000Y102000000D03*
X36830000Y102000000D03*
X38100000Y102000000D03*
X39370000Y102000000D03*
X40640000Y102000000D03*
D35*
X42470000Y102600000D03*
X42470000Y103870000D03*
X42470000Y105140000D03*
X42470000Y106410000D03*
X42470000Y107680000D03*
X42470000Y108950000D03*
X42470000Y110220000D03*
X42470000Y111490000D03*
X42470000Y112760000D03*
X42470000Y114030000D03*
X42470000Y115300000D03*
D36*
X39320000Y113150000D03*
D37*
X37220000Y113150000D03*
X35120000Y113150000D03*
X33020000Y113150000D03*
X30920000Y113150000D03*
X28820000Y113150000D03*
X26720000Y113150000D03*
X39320000Y111050000D03*
X37220000Y111050000D03*
X35120000Y111050000D03*
X33020000Y111050000D03*
X30920000Y111050000D03*
X28820000Y111050000D03*
X26720000Y111050000D03*
X39320000Y108950000D03*
X37220000Y108950000D03*
X35120000Y108950000D03*
X33020000Y108950000D03*
X30920000Y108950000D03*
X28820000Y108950000D03*
X26720000Y108950000D03*
X39320000Y106850000D03*
X37220000Y106850000D03*
X35120000Y106850000D03*
X33020000Y106850000D03*
X30920000Y106850000D03*
X28820000Y106850000D03*
X26720000Y106850000D03*
X39320000Y104850000D03*
X37220000Y104850000D03*
X35120000Y104850000D03*
X33020000Y104850000D03*
X30920000Y104850000D03*
X28820000Y104850000D03*
X26720000Y104850000D03*
%TD*%
D34*
%TO.C,U3*%
X40640000Y72220000D03*
X39370000Y72220000D03*
X38100000Y72220000D03*
X36830000Y72220000D03*
X35560000Y72220000D03*
X34290000Y72220000D03*
X33020000Y72220000D03*
X31750000Y72220000D03*
X30480000Y72220000D03*
X29210000Y72220000D03*
X27940000Y72220000D03*
X26670000Y72220000D03*
X25400000Y72220000D03*
D35*
X23570000Y71620000D03*
X23570000Y70350000D03*
X23570000Y69080000D03*
X23570000Y67810000D03*
X23570000Y66540000D03*
X23570000Y65270000D03*
X23570000Y64000000D03*
X23570000Y62730000D03*
X23570000Y61460000D03*
X23570000Y60190000D03*
X23570000Y58920000D03*
D34*
X25400000Y58320000D03*
X26670000Y58320000D03*
X27940000Y58320000D03*
X29210000Y58320000D03*
X30480000Y58320000D03*
X31750000Y58320000D03*
X33020000Y58320000D03*
X34290000Y58320000D03*
X35560000Y58320000D03*
X36830000Y58320000D03*
X38100000Y58320000D03*
X39370000Y58320000D03*
X40640000Y58320000D03*
D35*
X42470000Y58920000D03*
X42470000Y60190000D03*
X42470000Y61460000D03*
X42470000Y62730000D03*
X42470000Y64000000D03*
X42470000Y65270000D03*
X42470000Y66540000D03*
X42470000Y67810000D03*
X42470000Y69080000D03*
X42470000Y70350000D03*
X42470000Y71620000D03*
D36*
X39320000Y69470000D03*
D37*
X37220000Y69470000D03*
X35120000Y69470000D03*
X33020000Y69470000D03*
X30920000Y69470000D03*
X28820000Y69470000D03*
X26720000Y69470000D03*
X39320000Y67370000D03*
X37220000Y67370000D03*
X35120000Y67370000D03*
X33020000Y67370000D03*
X30920000Y67370000D03*
X28820000Y67370000D03*
X26720000Y67370000D03*
X39320000Y65270000D03*
X37220000Y65270000D03*
X35120000Y65270000D03*
X33020000Y65270000D03*
X30920000Y65270000D03*
X28820000Y65270000D03*
X26720000Y65270000D03*
X39320000Y63170000D03*
X37220000Y63170000D03*
X35120000Y63170000D03*
X33020000Y63170000D03*
X30920000Y63170000D03*
X28820000Y63170000D03*
X26720000Y63170000D03*
X39320000Y61170000D03*
X37220000Y61170000D03*
X35120000Y61170000D03*
X33020000Y61170000D03*
X30920000Y61170000D03*
X28820000Y61170000D03*
X26720000Y61170000D03*
%TD*%
D12*
%TO.C,ST1*%
X156956000Y128000000D03*
%TD*%
%TO.C,ST1*%
X156956000Y84320000D03*
%TD*%
%TO.C,ST1*%
X156956000Y40640000D03*
%TD*%
%TO.C,ST1*%
X102608000Y128000000D03*
%TD*%
%TO.C,ST1*%
X102608000Y84320000D03*
%TD*%
%TO.C,ST1*%
X102608000Y40640000D03*
%TD*%
%TO.C,ST1*%
X48260000Y128000000D03*
%TD*%
%TO.C,ST1*%
X48260000Y84320000D03*
%TD*%
D38*
%TO.C,J7*%
X119086000Y125460000D03*
X118086000Y125460000D03*
X117086000Y125460000D03*
X116086000Y125460000D03*
D39*
X114786000Y129135000D03*
X120386000Y129135000D03*
%TD*%
D38*
%TO.C,J7*%
X119086000Y81780000D03*
X118086000Y81780000D03*
X117086000Y81780000D03*
X116086000Y81780000D03*
D39*
X114786000Y85455000D03*
X120386000Y85455000D03*
%TD*%
D38*
%TO.C,J7*%
X119086000Y38100000D03*
X118086000Y38100000D03*
X117086000Y38100000D03*
X116086000Y38100000D03*
D39*
X114786000Y41775000D03*
X120386000Y41775000D03*
%TD*%
D38*
%TO.C,J7*%
X64738000Y125460000D03*
X63738000Y125460000D03*
X62738000Y125460000D03*
X61738000Y125460000D03*
D39*
X60438000Y129135000D03*
X66038000Y129135000D03*
%TD*%
D38*
%TO.C,J7*%
X64738000Y81780000D03*
X63738000Y81780000D03*
X62738000Y81780000D03*
X61738000Y81780000D03*
D39*
X60438000Y85455000D03*
X66038000Y85455000D03*
%TD*%
D38*
%TO.C,J7*%
X64738000Y38100000D03*
X63738000Y38100000D03*
X62738000Y38100000D03*
X61738000Y38100000D03*
D39*
X60438000Y41775000D03*
X66038000Y41775000D03*
%TD*%
D38*
%TO.C,J7*%
X10390000Y125460000D03*
X9390000Y125460000D03*
X8390000Y125460000D03*
X7390000Y125460000D03*
D39*
X6090000Y129135000D03*
X11690000Y129135000D03*
%TD*%
D38*
%TO.C,J7*%
X10390000Y81780000D03*
X9390000Y81780000D03*
X8390000Y81780000D03*
X7390000Y81780000D03*
D39*
X6090000Y85455000D03*
X11690000Y85455000D03*
%TD*%
D29*
%TO.C,R1*%
X112696000Y94345000D03*
X111046000Y94345000D03*
%TD*%
%TO.C,R1*%
X112696000Y50665000D03*
X111046000Y50665000D03*
%TD*%
%TO.C,R1*%
X112696000Y6985000D03*
X111046000Y6985000D03*
%TD*%
%TO.C,R1*%
X58348000Y94345000D03*
X56698000Y94345000D03*
%TD*%
%TO.C,R1*%
X58348000Y50665000D03*
X56698000Y50665000D03*
%TD*%
%TO.C,R1*%
X58348000Y6985000D03*
X56698000Y6985000D03*
%TD*%
%TO.C,R1*%
X4000000Y94345000D03*
X2350000Y94345000D03*
%TD*%
%TO.C,R1*%
X4000000Y50665000D03*
X2350000Y50665000D03*
%TD*%
D16*
%TO.C,C11*%
X125383500Y115300000D03*
X126933500Y115300000D03*
%TD*%
%TO.C,C11*%
X125383500Y71620000D03*
X126933500Y71620000D03*
%TD*%
%TO.C,C11*%
X125383500Y27940000D03*
X126933500Y27940000D03*
%TD*%
%TO.C,C11*%
X71035500Y115300000D03*
X72585500Y115300000D03*
%TD*%
%TO.C,C11*%
X71035500Y71620000D03*
X72585500Y71620000D03*
%TD*%
%TO.C,C11*%
X71035500Y27940000D03*
X72585500Y27940000D03*
%TD*%
%TO.C,C11*%
X16687500Y115300000D03*
X18237500Y115300000D03*
%TD*%
%TO.C,C11*%
X16687500Y71620000D03*
X18237500Y71620000D03*
%TD*%
D31*
%TO.C,J9*%
X122666000Y88630000D03*
X125206000Y88630000D03*
X127746000Y88630000D03*
X130286000Y88630000D03*
%TD*%
%TO.C,J9*%
X122666000Y44950000D03*
X125206000Y44950000D03*
X127746000Y44950000D03*
X130286000Y44950000D03*
%TD*%
%TO.C,J9*%
X122666000Y1270000D03*
X125206000Y1270000D03*
X127746000Y1270000D03*
X130286000Y1270000D03*
%TD*%
%TO.C,J9*%
X68318000Y88630000D03*
X70858000Y88630000D03*
X73398000Y88630000D03*
X75938000Y88630000D03*
%TD*%
%TO.C,J9*%
X68318000Y44950000D03*
X70858000Y44950000D03*
X73398000Y44950000D03*
X75938000Y44950000D03*
%TD*%
%TO.C,J9*%
X68318000Y1270000D03*
X70858000Y1270000D03*
X73398000Y1270000D03*
X75938000Y1270000D03*
%TD*%
%TO.C,J9*%
X13970000Y88630000D03*
X16510000Y88630000D03*
X19050000Y88630000D03*
X21590000Y88630000D03*
%TD*%
%TO.C,J9*%
X13970000Y44950000D03*
X16510000Y44950000D03*
X19050000Y44950000D03*
X21590000Y44950000D03*
%TD*%
D30*
%TO.C,J5*%
X157114750Y118475000D03*
X157114750Y121015000D03*
X157114750Y115935000D03*
%TD*%
%TO.C,J5*%
X157114750Y74795000D03*
X157114750Y77335000D03*
X157114750Y72255000D03*
%TD*%
%TO.C,J5*%
X157114750Y31115000D03*
X157114750Y33655000D03*
X157114750Y28575000D03*
%TD*%
%TO.C,J5*%
X102766750Y118475000D03*
X102766750Y121015000D03*
X102766750Y115935000D03*
%TD*%
%TO.C,J5*%
X102766750Y74795000D03*
X102766750Y77335000D03*
X102766750Y72255000D03*
%TD*%
%TO.C,J5*%
X102766750Y31115000D03*
X102766750Y33655000D03*
X102766750Y28575000D03*
%TD*%
%TO.C,J5*%
X48418750Y118475000D03*
X48418750Y121015000D03*
X48418750Y115935000D03*
%TD*%
%TO.C,J5*%
X48418750Y74795000D03*
X48418750Y77335000D03*
X48418750Y72255000D03*
%TD*%
D14*
%TO.C,D3*%
X151558500Y119272500D03*
X151558500Y118312500D03*
%TD*%
%TO.C,D3*%
X151558500Y75592500D03*
X151558500Y74632500D03*
%TD*%
%TO.C,D3*%
X151558500Y31912500D03*
X151558500Y30952500D03*
%TD*%
%TO.C,D3*%
X97210500Y119272500D03*
X97210500Y118312500D03*
%TD*%
%TO.C,D3*%
X97210500Y75592500D03*
X97210500Y74632500D03*
%TD*%
%TO.C,D3*%
X97210500Y31912500D03*
X97210500Y30952500D03*
%TD*%
%TO.C,D3*%
X42862500Y119272500D03*
X42862500Y118312500D03*
%TD*%
%TO.C,D3*%
X42862500Y75592500D03*
X42862500Y74632500D03*
%TD*%
D40*
%TO.C,FID4*%
X158861000Y87995000D03*
%TD*%
%TO.C,FID4*%
X158861000Y44315000D03*
%TD*%
%TO.C,FID4*%
X158861000Y635000D03*
%TD*%
%TO.C,FID4*%
X104513000Y87995000D03*
%TD*%
%TO.C,FID4*%
X104513000Y44315000D03*
%TD*%
%TO.C,FID4*%
X104513000Y635000D03*
%TD*%
%TO.C,FID4*%
X50165000Y87995000D03*
%TD*%
%TO.C,FID4*%
X50165000Y44315000D03*
%TD*%
D19*
%TO.C,C15*%
X149336000Y97342500D03*
X149336000Y95792500D03*
%TD*%
%TO.C,C15*%
X149336000Y53662500D03*
X149336000Y52112500D03*
%TD*%
%TO.C,C15*%
X149336000Y9982500D03*
X149336000Y8432500D03*
%TD*%
%TO.C,C15*%
X94988000Y97342500D03*
X94988000Y95792500D03*
%TD*%
%TO.C,C15*%
X94988000Y53662500D03*
X94988000Y52112500D03*
%TD*%
%TO.C,C15*%
X94988000Y9982500D03*
X94988000Y8432500D03*
%TD*%
%TO.C,C15*%
X40640000Y97342500D03*
X40640000Y95792500D03*
%TD*%
%TO.C,C15*%
X40640000Y53662500D03*
X40640000Y52112500D03*
%TD*%
D41*
%TO.C,R12*%
X150923500Y97392500D03*
X150923500Y95742500D03*
%TD*%
%TO.C,R12*%
X150923500Y53712500D03*
X150923500Y52062500D03*
%TD*%
%TO.C,R12*%
X150923500Y10032500D03*
X150923500Y8382500D03*
%TD*%
%TO.C,R12*%
X96575500Y97392500D03*
X96575500Y95742500D03*
%TD*%
%TO.C,R12*%
X96575500Y53712500D03*
X96575500Y52062500D03*
%TD*%
%TO.C,R12*%
X96575500Y10032500D03*
X96575500Y8382500D03*
%TD*%
%TO.C,R12*%
X42227500Y97392500D03*
X42227500Y95742500D03*
%TD*%
%TO.C,R12*%
X42227500Y53712500D03*
X42227500Y52062500D03*
%TD*%
D18*
%TO.C,D2*%
X126946000Y119110000D03*
X125371000Y119110000D03*
%TD*%
%TO.C,D2*%
X126946000Y75430000D03*
X125371000Y75430000D03*
%TD*%
%TO.C,D2*%
X126946000Y31750000D03*
X125371000Y31750000D03*
%TD*%
%TO.C,D2*%
X72598000Y119110000D03*
X71023000Y119110000D03*
%TD*%
%TO.C,D2*%
X72598000Y75430000D03*
X71023000Y75430000D03*
%TD*%
%TO.C,D2*%
X72598000Y31750000D03*
X71023000Y31750000D03*
%TD*%
%TO.C,D2*%
X18250000Y119110000D03*
X16675000Y119110000D03*
%TD*%
%TO.C,D2*%
X18250000Y75430000D03*
X16675000Y75430000D03*
%TD*%
D24*
%TO.C,C2*%
X127251000Y100695000D03*
X125701000Y100695000D03*
%TD*%
%TO.C,C2*%
X127251000Y57015000D03*
X125701000Y57015000D03*
%TD*%
%TO.C,C2*%
X127251000Y13335000D03*
X125701000Y13335000D03*
%TD*%
%TO.C,C2*%
X72903000Y100695000D03*
X71353000Y100695000D03*
%TD*%
%TO.C,C2*%
X72903000Y57015000D03*
X71353000Y57015000D03*
%TD*%
%TO.C,C2*%
X72903000Y13335000D03*
X71353000Y13335000D03*
%TD*%
%TO.C,C2*%
X18555000Y100695000D03*
X17005000Y100695000D03*
%TD*%
%TO.C,C2*%
X18555000Y57015000D03*
X17005000Y57015000D03*
%TD*%
D29*
%TO.C,R4*%
X123491000Y123872500D03*
X121841000Y123872500D03*
%TD*%
%TO.C,R4*%
X123491000Y80192500D03*
X121841000Y80192500D03*
%TD*%
%TO.C,R4*%
X123491000Y36512500D03*
X121841000Y36512500D03*
%TD*%
%TO.C,R4*%
X69143000Y123872500D03*
X67493000Y123872500D03*
%TD*%
%TO.C,R4*%
X69143000Y80192500D03*
X67493000Y80192500D03*
%TD*%
%TO.C,R4*%
X69143000Y36512500D03*
X67493000Y36512500D03*
%TD*%
%TO.C,R4*%
X14795000Y123872500D03*
X13145000Y123872500D03*
%TD*%
%TO.C,R4*%
X14795000Y80192500D03*
X13145000Y80192500D03*
%TD*%
D18*
%TO.C,D1*%
X126946000Y123872500D03*
X125371000Y123872500D03*
%TD*%
%TO.C,D1*%
X126946000Y80192500D03*
X125371000Y80192500D03*
%TD*%
%TO.C,D1*%
X126946000Y36512500D03*
X125371000Y36512500D03*
%TD*%
%TO.C,D1*%
X72598000Y123872500D03*
X71023000Y123872500D03*
%TD*%
%TO.C,D1*%
X72598000Y80192500D03*
X71023000Y80192500D03*
%TD*%
%TO.C,D1*%
X72598000Y36512500D03*
X71023000Y36512500D03*
%TD*%
%TO.C,D1*%
X18250000Y123872500D03*
X16675000Y123872500D03*
%TD*%
%TO.C,D1*%
X18250000Y80192500D03*
X16675000Y80192500D03*
%TD*%
D29*
%TO.C,R5*%
X123491000Y122285000D03*
X121841000Y122285000D03*
%TD*%
%TO.C,R5*%
X123491000Y78605000D03*
X121841000Y78605000D03*
%TD*%
%TO.C,R5*%
X123491000Y34925000D03*
X121841000Y34925000D03*
%TD*%
%TO.C,R5*%
X69143000Y122285000D03*
X67493000Y122285000D03*
%TD*%
%TO.C,R5*%
X69143000Y78605000D03*
X67493000Y78605000D03*
%TD*%
%TO.C,R5*%
X69143000Y34925000D03*
X67493000Y34925000D03*
%TD*%
%TO.C,R5*%
X14795000Y122285000D03*
X13145000Y122285000D03*
%TD*%
%TO.C,R5*%
X14795000Y78605000D03*
X13145000Y78605000D03*
%TD*%
%TO.C,R2*%
X112696000Y105775000D03*
X111046000Y105775000D03*
%TD*%
%TO.C,R2*%
X112696000Y62095000D03*
X111046000Y62095000D03*
%TD*%
%TO.C,R2*%
X112696000Y18415000D03*
X111046000Y18415000D03*
%TD*%
%TO.C,R2*%
X58348000Y105775000D03*
X56698000Y105775000D03*
%TD*%
%TO.C,R2*%
X58348000Y62095000D03*
X56698000Y62095000D03*
%TD*%
%TO.C,R2*%
X58348000Y18415000D03*
X56698000Y18415000D03*
%TD*%
%TO.C,R2*%
X4000000Y105775000D03*
X2350000Y105775000D03*
%TD*%
%TO.C,R2*%
X4000000Y62095000D03*
X2350000Y62095000D03*
%TD*%
D42*
%TO.C,J8*%
X151528500Y125545000D03*
X150278500Y125545000D03*
X149028500Y125545000D03*
X147778500Y125545000D03*
D43*
X153403500Y128745000D03*
X145903500Y128745000D03*
%TD*%
D42*
%TO.C,J8*%
X151528500Y81865000D03*
X150278500Y81865000D03*
X149028500Y81865000D03*
X147778500Y81865000D03*
D43*
X153403500Y85065000D03*
X145903500Y85065000D03*
%TD*%
D42*
%TO.C,J8*%
X151528500Y38185000D03*
X150278500Y38185000D03*
X149028500Y38185000D03*
X147778500Y38185000D03*
D43*
X153403500Y41385000D03*
X145903500Y41385000D03*
%TD*%
D42*
%TO.C,J8*%
X97180500Y125545000D03*
X95930500Y125545000D03*
X94680500Y125545000D03*
X93430500Y125545000D03*
D43*
X99055500Y128745000D03*
X91555500Y128745000D03*
%TD*%
D42*
%TO.C,J8*%
X97180500Y81865000D03*
X95930500Y81865000D03*
X94680500Y81865000D03*
X93430500Y81865000D03*
D43*
X99055500Y85065000D03*
X91555500Y85065000D03*
%TD*%
D42*
%TO.C,J8*%
X97180500Y38185000D03*
X95930500Y38185000D03*
X94680500Y38185000D03*
X93430500Y38185000D03*
D43*
X99055500Y41385000D03*
X91555500Y41385000D03*
%TD*%
D42*
%TO.C,J8*%
X42832500Y125545000D03*
X41582500Y125545000D03*
X40332500Y125545000D03*
X39082500Y125545000D03*
D43*
X44707500Y128745000D03*
X37207500Y128745000D03*
%TD*%
D42*
%TO.C,J8*%
X42832500Y81865000D03*
X41582500Y81865000D03*
X40332500Y81865000D03*
X39082500Y81865000D03*
D43*
X44707500Y85065000D03*
X37207500Y85065000D03*
%TD*%
D44*
%TO.C,D5*%
X125326000Y110220000D03*
X127626000Y110220000D03*
%TD*%
%TO.C,D5*%
X125326000Y66540000D03*
X127626000Y66540000D03*
%TD*%
%TO.C,D5*%
X125326000Y22860000D03*
X127626000Y22860000D03*
%TD*%
%TO.C,D5*%
X70978000Y110220000D03*
X73278000Y110220000D03*
%TD*%
%TO.C,D5*%
X70978000Y66540000D03*
X73278000Y66540000D03*
%TD*%
%TO.C,D5*%
X70978000Y22860000D03*
X73278000Y22860000D03*
%TD*%
%TO.C,D5*%
X16630000Y110220000D03*
X18930000Y110220000D03*
%TD*%
%TO.C,D5*%
X16630000Y66540000D03*
X18930000Y66540000D03*
%TD*%
D31*
%TO.C,J6*%
X142986000Y129270000D03*
X140446000Y129270000D03*
X137906000Y129270000D03*
X135366000Y129270000D03*
X132826000Y129270000D03*
X130286000Y129270000D03*
X127746000Y129270000D03*
X125206000Y129270000D03*
X122666000Y129270000D03*
%TD*%
%TO.C,J6*%
X142986000Y85590000D03*
X140446000Y85590000D03*
X137906000Y85590000D03*
X135366000Y85590000D03*
X132826000Y85590000D03*
X130286000Y85590000D03*
X127746000Y85590000D03*
X125206000Y85590000D03*
X122666000Y85590000D03*
%TD*%
%TO.C,J6*%
X142986000Y41910000D03*
X140446000Y41910000D03*
X137906000Y41910000D03*
X135366000Y41910000D03*
X132826000Y41910000D03*
X130286000Y41910000D03*
X127746000Y41910000D03*
X125206000Y41910000D03*
X122666000Y41910000D03*
%TD*%
%TO.C,J6*%
X88638000Y129270000D03*
X86098000Y129270000D03*
X83558000Y129270000D03*
X81018000Y129270000D03*
X78478000Y129270000D03*
X75938000Y129270000D03*
X73398000Y129270000D03*
X70858000Y129270000D03*
X68318000Y129270000D03*
%TD*%
%TO.C,J6*%
X88638000Y85590000D03*
X86098000Y85590000D03*
X83558000Y85590000D03*
X81018000Y85590000D03*
X78478000Y85590000D03*
X75938000Y85590000D03*
X73398000Y85590000D03*
X70858000Y85590000D03*
X68318000Y85590000D03*
%TD*%
%TO.C,J6*%
X88638000Y41910000D03*
X86098000Y41910000D03*
X83558000Y41910000D03*
X81018000Y41910000D03*
X78478000Y41910000D03*
X75938000Y41910000D03*
X73398000Y41910000D03*
X70858000Y41910000D03*
X68318000Y41910000D03*
%TD*%
%TO.C,J6*%
X34290000Y129270000D03*
X31750000Y129270000D03*
X29210000Y129270000D03*
X26670000Y129270000D03*
X24130000Y129270000D03*
X21590000Y129270000D03*
X19050000Y129270000D03*
X16510000Y129270000D03*
X13970000Y129270000D03*
%TD*%
%TO.C,J6*%
X34290000Y85590000D03*
X31750000Y85590000D03*
X29210000Y85590000D03*
X26670000Y85590000D03*
X24130000Y85590000D03*
X21590000Y85590000D03*
X19050000Y85590000D03*
X16510000Y85590000D03*
X13970000Y85590000D03*
%TD*%
D24*
%TO.C,C9*%
X127251000Y106410000D03*
X125701000Y106410000D03*
%TD*%
%TO.C,C9*%
X127251000Y62730000D03*
X125701000Y62730000D03*
%TD*%
%TO.C,C9*%
X127251000Y19050000D03*
X125701000Y19050000D03*
%TD*%
%TO.C,C9*%
X72903000Y106410000D03*
X71353000Y106410000D03*
%TD*%
%TO.C,C9*%
X72903000Y62730000D03*
X71353000Y62730000D03*
%TD*%
%TO.C,C9*%
X72903000Y19050000D03*
X71353000Y19050000D03*
%TD*%
%TO.C,C9*%
X18555000Y106410000D03*
X17005000Y106410000D03*
%TD*%
%TO.C,C9*%
X18555000Y62730000D03*
X17005000Y62730000D03*
%TD*%
D12*
%TO.C,ST2*%
X156956000Y89900000D03*
%TD*%
%TO.C,ST2*%
X156956000Y46220000D03*
%TD*%
%TO.C,ST2*%
X156956000Y2540000D03*
%TD*%
%TO.C,ST2*%
X102608000Y89900000D03*
%TD*%
%TO.C,ST2*%
X102608000Y46220000D03*
%TD*%
%TO.C,ST2*%
X102608000Y2540000D03*
%TD*%
%TO.C,ST2*%
X48260000Y89900000D03*
%TD*%
%TO.C,ST2*%
X48260000Y46220000D03*
%TD*%
D45*
%TO.C,J1*%
X113601000Y102950000D03*
X113601000Y97170000D03*
D46*
X114706000Y101310000D03*
X114706000Y100310000D03*
D47*
X114706000Y99810000D03*
X114706000Y98810000D03*
X114706000Y98310000D03*
X114706000Y99310000D03*
D46*
X114706000Y100810000D03*
X114706000Y101810000D03*
D48*
X114706000Y103285000D03*
D49*
X114706000Y96835000D03*
D50*
X109951000Y104378000D03*
D51*
X114131000Y104378000D03*
X114131000Y95742000D03*
D50*
X109951000Y95742000D03*
D48*
X114706000Y102510000D03*
D49*
X114706000Y97610000D03*
%TD*%
D45*
%TO.C,J1*%
X113601000Y59270000D03*
X113601000Y53490000D03*
D46*
X114706000Y57630000D03*
X114706000Y56630000D03*
D47*
X114706000Y56130000D03*
X114706000Y55130000D03*
X114706000Y54630000D03*
X114706000Y55630000D03*
D46*
X114706000Y57130000D03*
X114706000Y58130000D03*
D48*
X114706000Y59605000D03*
D49*
X114706000Y53155000D03*
D50*
X109951000Y60698000D03*
D51*
X114131000Y60698000D03*
X114131000Y52062000D03*
D50*
X109951000Y52062000D03*
D48*
X114706000Y58830000D03*
D49*
X114706000Y53930000D03*
%TD*%
D45*
%TO.C,J1*%
X113601000Y15590000D03*
X113601000Y9810000D03*
D46*
X114706000Y13950000D03*
X114706000Y12950000D03*
D47*
X114706000Y12450000D03*
X114706000Y11450000D03*
X114706000Y10950000D03*
X114706000Y11950000D03*
D46*
X114706000Y13450000D03*
X114706000Y14450000D03*
D48*
X114706000Y15925000D03*
D49*
X114706000Y9475000D03*
D50*
X109951000Y17018000D03*
D51*
X114131000Y17018000D03*
X114131000Y8382000D03*
D50*
X109951000Y8382000D03*
D48*
X114706000Y15150000D03*
D49*
X114706000Y10250000D03*
%TD*%
D45*
%TO.C,J1*%
X59253000Y102950000D03*
X59253000Y97170000D03*
D46*
X60358000Y101310000D03*
X60358000Y100310000D03*
D47*
X60358000Y99810000D03*
X60358000Y98810000D03*
X60358000Y98310000D03*
X60358000Y99310000D03*
D46*
X60358000Y100810000D03*
X60358000Y101810000D03*
D48*
X60358000Y103285000D03*
D49*
X60358000Y96835000D03*
D50*
X55603000Y104378000D03*
D51*
X59783000Y104378000D03*
X59783000Y95742000D03*
D50*
X55603000Y95742000D03*
D48*
X60358000Y102510000D03*
D49*
X60358000Y97610000D03*
%TD*%
D45*
%TO.C,J1*%
X59253000Y59270000D03*
X59253000Y53490000D03*
D46*
X60358000Y57630000D03*
X60358000Y56630000D03*
D47*
X60358000Y56130000D03*
X60358000Y55130000D03*
X60358000Y54630000D03*
X60358000Y55630000D03*
D46*
X60358000Y57130000D03*
X60358000Y58130000D03*
D48*
X60358000Y59605000D03*
D49*
X60358000Y53155000D03*
D50*
X55603000Y60698000D03*
D51*
X59783000Y60698000D03*
X59783000Y52062000D03*
D50*
X55603000Y52062000D03*
D48*
X60358000Y58830000D03*
D49*
X60358000Y53930000D03*
%TD*%
D45*
%TO.C,J1*%
X59253000Y15590000D03*
X59253000Y9810000D03*
D46*
X60358000Y13950000D03*
X60358000Y12950000D03*
D47*
X60358000Y12450000D03*
X60358000Y11450000D03*
X60358000Y10950000D03*
X60358000Y11950000D03*
D46*
X60358000Y13450000D03*
X60358000Y14450000D03*
D48*
X60358000Y15925000D03*
D49*
X60358000Y9475000D03*
D50*
X55603000Y17018000D03*
D51*
X59783000Y17018000D03*
X59783000Y8382000D03*
D50*
X55603000Y8382000D03*
D48*
X60358000Y15150000D03*
D49*
X60358000Y10250000D03*
%TD*%
D45*
%TO.C,J1*%
X4905000Y102950000D03*
X4905000Y97170000D03*
D46*
X6010000Y101310000D03*
X6010000Y100310000D03*
D47*
X6010000Y99810000D03*
X6010000Y98810000D03*
X6010000Y98310000D03*
X6010000Y99310000D03*
D46*
X6010000Y100810000D03*
X6010000Y101810000D03*
D48*
X6010000Y103285000D03*
D49*
X6010000Y96835000D03*
D50*
X1255000Y104378000D03*
D51*
X5435000Y104378000D03*
X5435000Y95742000D03*
D50*
X1255000Y95742000D03*
D48*
X6010000Y102510000D03*
D49*
X6010000Y97610000D03*
%TD*%
D45*
%TO.C,J1*%
X4905000Y59270000D03*
X4905000Y53490000D03*
D46*
X6010000Y57630000D03*
X6010000Y56630000D03*
D47*
X6010000Y56130000D03*
X6010000Y55130000D03*
X6010000Y54630000D03*
X6010000Y55630000D03*
D46*
X6010000Y57130000D03*
X6010000Y58130000D03*
D48*
X6010000Y59605000D03*
D49*
X6010000Y53155000D03*
D50*
X1255000Y60698000D03*
D51*
X5435000Y60698000D03*
X5435000Y52062000D03*
D50*
X1255000Y52062000D03*
D48*
X6010000Y58830000D03*
D49*
X6010000Y53930000D03*
%TD*%
D52*
%TO.C,D11*%
X130133500Y106077500D03*
X130133500Y106727500D03*
X130133500Y107377500D03*
X128533500Y107377500D03*
X128533500Y106077500D03*
%TD*%
%TO.C,D11*%
X130133500Y62397500D03*
X130133500Y63047500D03*
X130133500Y63697500D03*
X128533500Y63697500D03*
X128533500Y62397500D03*
%TD*%
%TO.C,D11*%
X130133500Y18717500D03*
X130133500Y19367500D03*
X130133500Y20017500D03*
X128533500Y20017500D03*
X128533500Y18717500D03*
%TD*%
%TO.C,D11*%
X75785500Y106077500D03*
X75785500Y106727500D03*
X75785500Y107377500D03*
X74185500Y107377500D03*
X74185500Y106077500D03*
%TD*%
%TO.C,D11*%
X75785500Y62397500D03*
X75785500Y63047500D03*
X75785500Y63697500D03*
X74185500Y63697500D03*
X74185500Y62397500D03*
%TD*%
%TO.C,D11*%
X75785500Y18717500D03*
X75785500Y19367500D03*
X75785500Y20017500D03*
X74185500Y20017500D03*
X74185500Y18717500D03*
%TD*%
%TO.C,D11*%
X21437500Y106077500D03*
X21437500Y106727500D03*
X21437500Y107377500D03*
X19837500Y107377500D03*
X19837500Y106077500D03*
%TD*%
%TO.C,D11*%
X21437500Y62397500D03*
X21437500Y63047500D03*
X21437500Y63697500D03*
X19837500Y63697500D03*
X19837500Y62397500D03*
%TD*%
D24*
%TO.C,C5*%
X127251000Y102600000D03*
X125701000Y102600000D03*
%TD*%
%TO.C,C5*%
X127251000Y58920000D03*
X125701000Y58920000D03*
%TD*%
%TO.C,C5*%
X127251000Y15240000D03*
X125701000Y15240000D03*
%TD*%
%TO.C,C5*%
X72903000Y102600000D03*
X71353000Y102600000D03*
%TD*%
%TO.C,C5*%
X72903000Y58920000D03*
X71353000Y58920000D03*
%TD*%
%TO.C,C5*%
X72903000Y15240000D03*
X71353000Y15240000D03*
%TD*%
%TO.C,C5*%
X18555000Y102600000D03*
X17005000Y102600000D03*
%TD*%
%TO.C,C5*%
X18555000Y58920000D03*
X17005000Y58920000D03*
%TD*%
D29*
%TO.C,R3*%
X123491000Y119110000D03*
X121841000Y119110000D03*
%TD*%
%TO.C,R3*%
X123491000Y75430000D03*
X121841000Y75430000D03*
%TD*%
%TO.C,R3*%
X123491000Y31750000D03*
X121841000Y31750000D03*
%TD*%
%TO.C,R3*%
X69143000Y119110000D03*
X67493000Y119110000D03*
%TD*%
%TO.C,R3*%
X69143000Y75430000D03*
X67493000Y75430000D03*
%TD*%
%TO.C,R3*%
X69143000Y31750000D03*
X67493000Y31750000D03*
%TD*%
%TO.C,R3*%
X14795000Y119110000D03*
X13145000Y119110000D03*
%TD*%
%TO.C,R3*%
X14795000Y75430000D03*
X13145000Y75430000D03*
%TD*%
D41*
%TO.C,R8*%
X146161000Y122157500D03*
X146161000Y120507500D03*
%TD*%
%TO.C,R8*%
X146161000Y78477500D03*
X146161000Y76827500D03*
%TD*%
%TO.C,R8*%
X146161000Y34797500D03*
X146161000Y33147500D03*
%TD*%
%TO.C,R8*%
X91813000Y122157500D03*
X91813000Y120507500D03*
%TD*%
%TO.C,R8*%
X91813000Y78477500D03*
X91813000Y76827500D03*
%TD*%
%TO.C,R8*%
X91813000Y34797500D03*
X91813000Y33147500D03*
%TD*%
%TO.C,R8*%
X37465000Y122157500D03*
X37465000Y120507500D03*
%TD*%
%TO.C,R8*%
X37465000Y78477500D03*
X37465000Y76827500D03*
%TD*%
D40*
%TO.C,FID3*%
X109331000Y129905000D03*
%TD*%
%TO.C,FID3*%
X109331000Y86225000D03*
%TD*%
%TO.C,FID3*%
X109331000Y42545000D03*
%TD*%
%TO.C,FID3*%
X54983000Y129905000D03*
%TD*%
%TO.C,FID3*%
X54983000Y86225000D03*
%TD*%
%TO.C,FID3*%
X54983000Y42545000D03*
%TD*%
%TO.C,FID3*%
X635000Y129905000D03*
%TD*%
%TO.C,FID3*%
X635000Y86225000D03*
%TD*%
D31*
%TO.C,J2*%
X109966000Y121650000D03*
X109966000Y119110000D03*
X109966000Y116570000D03*
X109966000Y114030000D03*
X109966000Y111490000D03*
X109966000Y108950000D03*
%TD*%
%TO.C,J2*%
X109966000Y77970000D03*
X109966000Y75430000D03*
X109966000Y72890000D03*
X109966000Y70350000D03*
X109966000Y67810000D03*
X109966000Y65270000D03*
%TD*%
%TO.C,J2*%
X109966000Y34290000D03*
X109966000Y31750000D03*
X109966000Y29210000D03*
X109966000Y26670000D03*
X109966000Y24130000D03*
X109966000Y21590000D03*
%TD*%
%TO.C,J2*%
X55618000Y121650000D03*
X55618000Y119110000D03*
X55618000Y116570000D03*
X55618000Y114030000D03*
X55618000Y111490000D03*
X55618000Y108950000D03*
%TD*%
%TO.C,J2*%
X55618000Y77970000D03*
X55618000Y75430000D03*
X55618000Y72890000D03*
X55618000Y70350000D03*
X55618000Y67810000D03*
X55618000Y65270000D03*
%TD*%
%TO.C,J2*%
X55618000Y34290000D03*
X55618000Y31750000D03*
X55618000Y29210000D03*
X55618000Y26670000D03*
X55618000Y24130000D03*
X55618000Y21590000D03*
%TD*%
%TO.C,J2*%
X1270000Y121650000D03*
X1270000Y119110000D03*
X1270000Y116570000D03*
X1270000Y114030000D03*
X1270000Y111490000D03*
X1270000Y108950000D03*
%TD*%
%TO.C,J2*%
X1270000Y77970000D03*
X1270000Y75430000D03*
X1270000Y72890000D03*
X1270000Y70350000D03*
X1270000Y67810000D03*
X1270000Y65270000D03*
%TD*%
D18*
%TO.C,D4*%
X126946000Y122285000D03*
X125371000Y122285000D03*
%TD*%
%TO.C,D4*%
X126946000Y78605000D03*
X125371000Y78605000D03*
%TD*%
%TO.C,D4*%
X126946000Y34925000D03*
X125371000Y34925000D03*
%TD*%
%TO.C,D4*%
X72598000Y122285000D03*
X71023000Y122285000D03*
%TD*%
%TO.C,D4*%
X72598000Y78605000D03*
X71023000Y78605000D03*
%TD*%
%TO.C,D4*%
X72598000Y34925000D03*
X71023000Y34925000D03*
%TD*%
%TO.C,D4*%
X18250000Y122285000D03*
X16675000Y122285000D03*
%TD*%
%TO.C,D4*%
X18250000Y78605000D03*
X16675000Y78605000D03*
%TD*%
D23*
%TO.C,C16*%
X149181000Y99742500D03*
X148221000Y99742500D03*
%TD*%
%TO.C,C16*%
X149181000Y56062500D03*
X148221000Y56062500D03*
%TD*%
%TO.C,C16*%
X149181000Y12382500D03*
X148221000Y12382500D03*
%TD*%
%TO.C,C16*%
X94833000Y99742500D03*
X93873000Y99742500D03*
%TD*%
%TO.C,C16*%
X94833000Y56062500D03*
X93873000Y56062500D03*
%TD*%
%TO.C,C16*%
X94833000Y12382500D03*
X93873000Y12382500D03*
%TD*%
%TO.C,C16*%
X40485000Y99742500D03*
X39525000Y99742500D03*
%TD*%
%TO.C,C16*%
X40485000Y56062500D03*
X39525000Y56062500D03*
%TD*%
%TO.C,C16*%
X40485000Y12382500D03*
X39525000Y12382500D03*
%TD*%
D18*
%TO.C,D4*%
X18250000Y34925000D03*
X16675000Y34925000D03*
%TD*%
D31*
%TO.C,J2*%
X1270000Y34290000D03*
X1270000Y31750000D03*
X1270000Y29210000D03*
X1270000Y26670000D03*
X1270000Y24130000D03*
X1270000Y21590000D03*
%TD*%
D40*
%TO.C,FID3*%
X635000Y42545000D03*
%TD*%
D41*
%TO.C,R8*%
X37465000Y34797500D03*
X37465000Y33147500D03*
%TD*%
D29*
%TO.C,R3*%
X14795000Y31750000D03*
X13145000Y31750000D03*
%TD*%
D24*
%TO.C,C5*%
X18555000Y15240000D03*
X17005000Y15240000D03*
%TD*%
D52*
%TO.C,D11*%
X21437500Y18717500D03*
X21437500Y19367500D03*
X21437500Y20017500D03*
X19837500Y20017500D03*
X19837500Y18717500D03*
%TD*%
D45*
%TO.C,J1*%
X4905000Y15590000D03*
X4905000Y9810000D03*
D46*
X6010000Y13950000D03*
X6010000Y12950000D03*
D47*
X6010000Y12450000D03*
X6010000Y11450000D03*
X6010000Y10950000D03*
X6010000Y11950000D03*
D46*
X6010000Y13450000D03*
X6010000Y14450000D03*
D48*
X6010000Y15925000D03*
D49*
X6010000Y9475000D03*
D50*
X1255000Y17018000D03*
D51*
X5435000Y17018000D03*
X5435000Y8382000D03*
D50*
X1255000Y8382000D03*
D48*
X6010000Y15150000D03*
D49*
X6010000Y10250000D03*
%TD*%
D12*
%TO.C,ST2*%
X48260000Y2540000D03*
%TD*%
D24*
%TO.C,C9*%
X18555000Y19050000D03*
X17005000Y19050000D03*
%TD*%
D31*
%TO.C,J6*%
X34290000Y41910000D03*
X31750000Y41910000D03*
X29210000Y41910000D03*
X26670000Y41910000D03*
X24130000Y41910000D03*
X21590000Y41910000D03*
X19050000Y41910000D03*
X16510000Y41910000D03*
X13970000Y41910000D03*
%TD*%
D44*
%TO.C,D5*%
X16630000Y22860000D03*
X18930000Y22860000D03*
%TD*%
D42*
%TO.C,J8*%
X42832500Y38185000D03*
X41582500Y38185000D03*
X40332500Y38185000D03*
X39082500Y38185000D03*
D43*
X44707500Y41385000D03*
X37207500Y41385000D03*
%TD*%
D29*
%TO.C,R2*%
X4000000Y18415000D03*
X2350000Y18415000D03*
%TD*%
%TO.C,R5*%
X14795000Y34925000D03*
X13145000Y34925000D03*
%TD*%
D18*
%TO.C,D1*%
X18250000Y36512500D03*
X16675000Y36512500D03*
%TD*%
D29*
%TO.C,R4*%
X14795000Y36512500D03*
X13145000Y36512500D03*
%TD*%
D24*
%TO.C,C2*%
X18555000Y13335000D03*
X17005000Y13335000D03*
%TD*%
D18*
%TO.C,D2*%
X18250000Y31750000D03*
X16675000Y31750000D03*
%TD*%
D41*
%TO.C,R12*%
X42227500Y10032500D03*
X42227500Y8382500D03*
%TD*%
D19*
%TO.C,C15*%
X40640000Y9982500D03*
X40640000Y8432500D03*
%TD*%
D40*
%TO.C,FID4*%
X50165000Y635000D03*
%TD*%
D14*
%TO.C,D3*%
X42862500Y31912500D03*
X42862500Y30952500D03*
%TD*%
D30*
%TO.C,J5*%
X48418750Y31115000D03*
X48418750Y33655000D03*
X48418750Y28575000D03*
%TD*%
D31*
%TO.C,J9*%
X13970000Y1270000D03*
X16510000Y1270000D03*
X19050000Y1270000D03*
X21590000Y1270000D03*
%TD*%
D16*
%TO.C,C11*%
X16687500Y27940000D03*
X18237500Y27940000D03*
%TD*%
D29*
%TO.C,R1*%
X4000000Y6985000D03*
X2350000Y6985000D03*
%TD*%
D38*
%TO.C,J7*%
X10390000Y38100000D03*
X9390000Y38100000D03*
X8390000Y38100000D03*
X7390000Y38100000D03*
D39*
X6090000Y41775000D03*
X11690000Y41775000D03*
%TD*%
D12*
%TO.C,ST1*%
X48260000Y40640000D03*
%TD*%
D34*
%TO.C,U3*%
X40640000Y28540000D03*
X39370000Y28540000D03*
X38100000Y28540000D03*
X36830000Y28540000D03*
X35560000Y28540000D03*
X34290000Y28540000D03*
X33020000Y28540000D03*
X31750000Y28540000D03*
X30480000Y28540000D03*
X29210000Y28540000D03*
X27940000Y28540000D03*
X26670000Y28540000D03*
X25400000Y28540000D03*
D35*
X23570000Y27940000D03*
X23570000Y26670000D03*
X23570000Y25400000D03*
X23570000Y24130000D03*
X23570000Y22860000D03*
X23570000Y21590000D03*
X23570000Y20320000D03*
X23570000Y19050000D03*
X23570000Y17780000D03*
X23570000Y16510000D03*
X23570000Y15240000D03*
D34*
X25400000Y14640000D03*
X26670000Y14640000D03*
X27940000Y14640000D03*
X29210000Y14640000D03*
X30480000Y14640000D03*
X31750000Y14640000D03*
X33020000Y14640000D03*
X34290000Y14640000D03*
X35560000Y14640000D03*
X36830000Y14640000D03*
X38100000Y14640000D03*
X39370000Y14640000D03*
X40640000Y14640000D03*
D35*
X42470000Y15240000D03*
X42470000Y16510000D03*
X42470000Y17780000D03*
X42470000Y19050000D03*
X42470000Y20320000D03*
X42470000Y21590000D03*
X42470000Y22860000D03*
X42470000Y24130000D03*
X42470000Y25400000D03*
X42470000Y26670000D03*
X42470000Y27940000D03*
D36*
X39320000Y25790000D03*
D37*
X37220000Y25790000D03*
X35120000Y25790000D03*
X33020000Y25790000D03*
X30920000Y25790000D03*
X28820000Y25790000D03*
X26720000Y25790000D03*
X39320000Y23690000D03*
X37220000Y23690000D03*
X35120000Y23690000D03*
X33020000Y23690000D03*
X30920000Y23690000D03*
X28820000Y23690000D03*
X26720000Y23690000D03*
X39320000Y21590000D03*
X37220000Y21590000D03*
X35120000Y21590000D03*
X33020000Y21590000D03*
X30920000Y21590000D03*
X28820000Y21590000D03*
X26720000Y21590000D03*
X39320000Y19490000D03*
X37220000Y19490000D03*
X35120000Y19490000D03*
X33020000Y19490000D03*
X30920000Y19490000D03*
X28820000Y19490000D03*
X26720000Y19490000D03*
X39320000Y17490000D03*
X37220000Y17490000D03*
X35120000Y17490000D03*
X33020000Y17490000D03*
X30920000Y17490000D03*
X28820000Y17490000D03*
X26720000Y17490000D03*
%TD*%
D33*
%TO.C,U2*%
X16830000Y8859900D03*
X17780000Y8859900D03*
X18730000Y8859900D03*
X18730000Y11460100D03*
X16830000Y11460100D03*
%TD*%
D15*
%TO.C,C4*%
X40640000Y33197500D03*
X40640000Y34747500D03*
%TD*%
D24*
%TO.C,C8*%
X18555000Y17145000D03*
X17005000Y17145000D03*
%TD*%
D32*
%TO.C,F1*%
X8890000Y11300000D03*
X8890000Y14100000D03*
%TD*%
D31*
%TO.C,J10*%
X24130000Y1270000D03*
X26670000Y1270000D03*
X29210000Y1270000D03*
X31750000Y1270000D03*
X34290000Y1270000D03*
X36830000Y1270000D03*
%TD*%
D16*
%TO.C,C7*%
X12560000Y8890000D03*
X14110000Y8890000D03*
%TD*%
D30*
%TO.C,J3*%
X48418750Y12065000D03*
X48418750Y14605000D03*
X48418750Y9525000D03*
%TD*%
D29*
%TO.C,R11*%
X14795000Y33337500D03*
X13145000Y33337500D03*
%TD*%
%TO.C,R10*%
X14795000Y30162500D03*
X13145000Y30162500D03*
%TD*%
D26*
%TO.C,U4*%
X11372500Y13950000D03*
X11372500Y13450000D03*
X11372500Y12950000D03*
X11372500Y12450000D03*
X11372500Y11950000D03*
X11372500Y11450000D03*
D27*
X12085000Y10737500D03*
X12585000Y10737500D03*
X13085000Y10737500D03*
X13585000Y10737500D03*
X14085000Y10737500D03*
X14585000Y10737500D03*
D26*
X15297500Y11450000D03*
X15297500Y11950000D03*
X15297500Y12450000D03*
X15297500Y12950000D03*
X15297500Y13450000D03*
X15297500Y13950000D03*
D27*
X14585000Y14662500D03*
X14085000Y14662500D03*
X13585000Y14662500D03*
X13085000Y14662500D03*
X12585000Y14662500D03*
X12085000Y14662500D03*
D28*
X13335000Y12700000D03*
%TD*%
D25*
%TO.C,L2*%
X41910000Y11267500D03*
X41910000Y12227500D03*
%TD*%
%TO.C,D10*%
X42862500Y11267500D03*
X42862500Y12227500D03*
%TD*%
D16*
%TO.C,C12*%
X16687500Y26352500D03*
X18237500Y26352500D03*
%TD*%
D24*
%TO.C,C10*%
X14110000Y16192500D03*
X12560000Y16192500D03*
%TD*%
D23*
%TO.C,C6*%
X40485000Y30797500D03*
X39525000Y30797500D03*
%TD*%
D18*
%TO.C,D8*%
X18250000Y30162500D03*
X16675000Y30162500D03*
%TD*%
D21*
%TO.C,J4*%
X7390000Y5080000D03*
X8390000Y5080000D03*
X9390000Y5080000D03*
X10390000Y5080000D03*
D22*
X11690000Y1405000D03*
X6090000Y1405000D03*
%TD*%
D20*
%TO.C,U1*%
X9840000Y19080100D03*
X8890000Y19080100D03*
X7940000Y19080100D03*
X7940000Y16479900D03*
X8890000Y16480000D03*
X9840000Y16479900D03*
%TD*%
D19*
%TO.C,C14*%
X39052500Y9982500D03*
X39052500Y8432500D03*
%TD*%
D18*
%TO.C,D9*%
X18250000Y33337500D03*
X16675000Y33337500D03*
%TD*%
D17*
%TO.C,R6*%
X42227500Y33147500D03*
X42227500Y34797500D03*
%TD*%
D16*
%TO.C,C1*%
X17005000Y6985000D03*
X18555000Y6985000D03*
%TD*%
%TO.C,C13*%
X8115000Y8890000D03*
X9665000Y8890000D03*
%TD*%
D13*
%TO.C,R9*%
X12510000Y6985000D03*
X14160000Y6985000D03*
%TD*%
D15*
%TO.C,C3*%
X39052500Y33197500D03*
X39052500Y34747500D03*
%TD*%
D14*
%TO.C,L1*%
X41910000Y31912500D03*
X41910000Y30952500D03*
%TD*%
D12*
%TO.C,ST3*%
X2540000Y40640000D03*
%TD*%
D13*
%TO.C,R7*%
X16955000Y20955000D03*
X18605000Y20955000D03*
%TD*%
D12*
%TO.C,ST4*%
X2540000Y2540000D03*
%TD*%
M02*
