%TF.GenerationSoftware,KiCad,Pcbnew,8.0.7*%
%TF.CreationDate,2025-04-01T11:43:10-06:00*%
%TF.ProjectId,SparkFun_GNSS_LG580P_panelized,53706172-6b46-4756-9e5f-474e53535f4c,rev?*%
%TF.SameCoordinates,Original*%
%TF.FileFunction,Soldermask,Bot*%
%TF.FilePolarity,Negative*%
%FSLAX46Y46*%
G04 Gerber Fmt 4.6, Leading zero omitted, Abs format (unit mm)*
G04 Created by KiCad (PCBNEW 8.0.7) date 2025-04-01 11:43:10*
%MOMM*%
%LPD*%
G01*
G04 APERTURE LIST*
G04 Aperture macros list*
%AMRoundRect*
0 Rectangle with rounded corners*
0 $1 Rounding radius*
0 $2 $3 $4 $5 $6 $7 $8 $9 X,Y pos of 4 corners*
0 Add a 4 corners polygon primitive as box body*
4,1,4,$2,$3,$4,$5,$6,$7,$8,$9,$2,$3,0*
0 Add four circle primitives for the rounded corners*
1,1,$1+$1,$2,$3*
1,1,$1+$1,$4,$5*
1,1,$1+$1,$6,$7*
1,1,$1+$1,$8,$9*
0 Add four rect primitives between the rounded corners*
20,1,$1+$1,$2,$3,$4,$5,0*
20,1,$1+$1,$4,$5,$6,$7,0*
20,1,$1+$1,$6,$7,$8,$9,0*
20,1,$1+$1,$8,$9,$2,$3,0*%
G04 Aperture macros list end*
%ADD10C,0.000000*%
%ADD11C,3.000000*%
%ADD12RoundRect,0.050000X-0.330200X-0.635000X0.330200X-0.635000X0.330200X0.635000X-0.330200X0.635000X0*%
%ADD13RoundRect,0.558000X0.000010X0.000010X-0.000010X0.000010X-0.000010X-0.000010X0.000010X-0.000010X0*%
%ADD14C,0.600000*%
%ADD15RoundRect,0.050000X0.635000X-0.330200X0.635000X0.330200X-0.635000X0.330200X-0.635000X-0.330200X0*%
%ADD16RoundRect,0.558000X0.000010X-0.000010X0.000010X0.000010X-0.000010X0.000010X-0.000010X-0.000010X0*%
%ADD17RoundRect,0.050000X-0.635000X0.330200X-0.635000X-0.330200X0.635000X-0.330200X0.635000X0.330200X0*%
%ADD18RoundRect,0.050000X0.330200X0.635000X-0.330200X0.635000X-0.330200X-0.635000X0.330200X-0.635000X0*%
%ADD19C,3.200000*%
%ADD20RoundRect,0.050000X-2.000000X0.750000X-2.000000X-0.750000X2.000000X-0.750000X2.000000X0.750000X0*%
%ADD21C,1.979600*%
%ADD22C,0.750000*%
%ADD23O,1.700000X1.100000*%
%ADD24O,2.200000X1.100000*%
G04 APERTURE END LIST*
D10*
%TO.C,JP5*%
G36*
X122920000Y116012000D02*
G01*
X122412000Y116012000D01*
X122412000Y116493000D01*
X122920000Y116493000D01*
X122920000Y116012000D01*
G37*
G36*
X122920000Y72332000D02*
G01*
X122412000Y72332000D01*
X122412000Y72813000D01*
X122920000Y72813000D01*
X122920000Y72332000D01*
G37*
G36*
X122920000Y28652000D02*
G01*
X122412000Y28652000D01*
X122412000Y29133000D01*
X122920000Y29133000D01*
X122920000Y28652000D01*
G37*
G36*
X68572000Y116012000D02*
G01*
X68064000Y116012000D01*
X68064000Y116493000D01*
X68572000Y116493000D01*
X68572000Y116012000D01*
G37*
G36*
X68572000Y72332000D02*
G01*
X68064000Y72332000D01*
X68064000Y72813000D01*
X68572000Y72813000D01*
X68572000Y72332000D01*
G37*
G36*
X68572000Y28652000D02*
G01*
X68064000Y28652000D01*
X68064000Y29133000D01*
X68572000Y29133000D01*
X68572000Y28652000D01*
G37*
G36*
X14224000Y116012000D02*
G01*
X13716000Y116012000D01*
X13716000Y116493000D01*
X14224000Y116493000D01*
X14224000Y116012000D01*
G37*
G36*
X14224000Y72332000D02*
G01*
X13716000Y72332000D01*
X13716000Y72813000D01*
X14224000Y72813000D01*
X14224000Y72332000D01*
G37*
%TO.C,JP6*%
G36*
X122920000Y113472000D02*
G01*
X122412000Y113472000D01*
X122412000Y113953000D01*
X122920000Y113953000D01*
X122920000Y113472000D01*
G37*
G36*
X122920000Y69792000D02*
G01*
X122412000Y69792000D01*
X122412000Y70273000D01*
X122920000Y70273000D01*
X122920000Y69792000D01*
G37*
G36*
X122920000Y26112000D02*
G01*
X122412000Y26112000D01*
X122412000Y26593000D01*
X122920000Y26593000D01*
X122920000Y26112000D01*
G37*
G36*
X68572000Y113472000D02*
G01*
X68064000Y113472000D01*
X68064000Y113953000D01*
X68572000Y113953000D01*
X68572000Y113472000D01*
G37*
G36*
X68572000Y69792000D02*
G01*
X68064000Y69792000D01*
X68064000Y70273000D01*
X68572000Y70273000D01*
X68572000Y69792000D01*
G37*
G36*
X68572000Y26112000D02*
G01*
X68064000Y26112000D01*
X68064000Y26593000D01*
X68572000Y26593000D01*
X68572000Y26112000D01*
G37*
G36*
X14224000Y113472000D02*
G01*
X13716000Y113472000D01*
X13716000Y113953000D01*
X14224000Y113953000D01*
X14224000Y113472000D01*
G37*
G36*
X14224000Y69792000D02*
G01*
X13716000Y69792000D01*
X13716000Y70273000D01*
X14224000Y70273000D01*
X14224000Y69792000D01*
G37*
%TO.C,JP2*%
G36*
X122920000Y123632000D02*
G01*
X122412000Y123632000D01*
X122412000Y124113000D01*
X122920000Y124113000D01*
X122920000Y123632000D01*
G37*
G36*
X122920000Y79952000D02*
G01*
X122412000Y79952000D01*
X122412000Y80433000D01*
X122920000Y80433000D01*
X122920000Y79952000D01*
G37*
G36*
X122920000Y36272000D02*
G01*
X122412000Y36272000D01*
X122412000Y36753000D01*
X122920000Y36753000D01*
X122920000Y36272000D01*
G37*
G36*
X68572000Y123632000D02*
G01*
X68064000Y123632000D01*
X68064000Y124113000D01*
X68572000Y124113000D01*
X68572000Y123632000D01*
G37*
G36*
X68572000Y79952000D02*
G01*
X68064000Y79952000D01*
X68064000Y80433000D01*
X68572000Y80433000D01*
X68572000Y79952000D01*
G37*
G36*
X68572000Y36272000D02*
G01*
X68064000Y36272000D01*
X68064000Y36753000D01*
X68572000Y36753000D01*
X68572000Y36272000D01*
G37*
G36*
X14224000Y123632000D02*
G01*
X13716000Y123632000D01*
X13716000Y124113000D01*
X14224000Y124113000D01*
X14224000Y123632000D01*
G37*
G36*
X14224000Y79952000D02*
G01*
X13716000Y79952000D01*
X13716000Y80433000D01*
X14224000Y80433000D01*
X14224000Y79952000D01*
G37*
%TO.C,JP1*%
G36*
X117826500Y113776000D02*
G01*
X117345500Y113776000D01*
X117345500Y114284000D01*
X117826500Y114284000D01*
X117826500Y113776000D01*
G37*
G36*
X117826500Y70096000D02*
G01*
X117345500Y70096000D01*
X117345500Y70604000D01*
X117826500Y70604000D01*
X117826500Y70096000D01*
G37*
G36*
X117826500Y26416000D02*
G01*
X117345500Y26416000D01*
X117345500Y26924000D01*
X117826500Y26924000D01*
X117826500Y26416000D01*
G37*
G36*
X63478500Y113776000D02*
G01*
X62997500Y113776000D01*
X62997500Y114284000D01*
X63478500Y114284000D01*
X63478500Y113776000D01*
G37*
G36*
X63478500Y70096000D02*
G01*
X62997500Y70096000D01*
X62997500Y70604000D01*
X63478500Y70604000D01*
X63478500Y70096000D01*
G37*
G36*
X63478500Y26416000D02*
G01*
X62997500Y26416000D01*
X62997500Y26924000D01*
X63478500Y26924000D01*
X63478500Y26416000D01*
G37*
G36*
X9130500Y113776000D02*
G01*
X8649500Y113776000D01*
X8649500Y114284000D01*
X9130500Y114284000D01*
X9130500Y113776000D01*
G37*
G36*
X9130500Y70096000D02*
G01*
X8649500Y70096000D01*
X8649500Y70604000D01*
X9130500Y70604000D01*
X9130500Y70096000D01*
G37*
%TO.C,JP8*%
G36*
X122920000Y118552000D02*
G01*
X122412000Y118552000D01*
X122412000Y119033000D01*
X122920000Y119033000D01*
X122920000Y118552000D01*
G37*
G36*
X122920000Y74872000D02*
G01*
X122412000Y74872000D01*
X122412000Y75353000D01*
X122920000Y75353000D01*
X122920000Y74872000D01*
G37*
G36*
X122920000Y31192000D02*
G01*
X122412000Y31192000D01*
X122412000Y31673000D01*
X122920000Y31673000D01*
X122920000Y31192000D01*
G37*
G36*
X68572000Y118552000D02*
G01*
X68064000Y118552000D01*
X68064000Y119033000D01*
X68572000Y119033000D01*
X68572000Y118552000D01*
G37*
G36*
X68572000Y74872000D02*
G01*
X68064000Y74872000D01*
X68064000Y75353000D01*
X68572000Y75353000D01*
X68572000Y74872000D01*
G37*
G36*
X68572000Y31192000D02*
G01*
X68064000Y31192000D01*
X68064000Y31673000D01*
X68572000Y31673000D01*
X68572000Y31192000D01*
G37*
G36*
X14224000Y118552000D02*
G01*
X13716000Y118552000D01*
X13716000Y119033000D01*
X14224000Y119033000D01*
X14224000Y118552000D01*
G37*
G36*
X14224000Y74872000D02*
G01*
X13716000Y74872000D01*
X13716000Y75353000D01*
X14224000Y75353000D01*
X14224000Y74872000D01*
G37*
%TO.C,JP7*%
G36*
X110202750Y99806000D02*
G01*
X109721750Y99806000D01*
X109721750Y100314000D01*
X110202750Y100314000D01*
X110202750Y99806000D01*
G37*
G36*
X110202750Y56126000D02*
G01*
X109721750Y56126000D01*
X109721750Y56634000D01*
X110202750Y56634000D01*
X110202750Y56126000D01*
G37*
G36*
X110202750Y12446000D02*
G01*
X109721750Y12446000D01*
X109721750Y12954000D01*
X110202750Y12954000D01*
X110202750Y12446000D01*
G37*
G36*
X55854750Y99806000D02*
G01*
X55373750Y99806000D01*
X55373750Y100314000D01*
X55854750Y100314000D01*
X55854750Y99806000D01*
G37*
G36*
X55854750Y56126000D02*
G01*
X55373750Y56126000D01*
X55373750Y56634000D01*
X55854750Y56634000D01*
X55854750Y56126000D01*
G37*
G36*
X55854750Y12446000D02*
G01*
X55373750Y12446000D01*
X55373750Y12954000D01*
X55854750Y12954000D01*
X55854750Y12446000D01*
G37*
G36*
X1506750Y99806000D02*
G01*
X1025750Y99806000D01*
X1025750Y100314000D01*
X1506750Y100314000D01*
X1506750Y99806000D01*
G37*
G36*
X1506750Y56126000D02*
G01*
X1025750Y56126000D01*
X1025750Y56634000D01*
X1506750Y56634000D01*
X1506750Y56126000D01*
G37*
%TO.C,JP3*%
G36*
X122920000Y121092000D02*
G01*
X122412000Y121092000D01*
X122412000Y121573000D01*
X122920000Y121573000D01*
X122920000Y121092000D01*
G37*
G36*
X122920000Y77412000D02*
G01*
X122412000Y77412000D01*
X122412000Y77893000D01*
X122920000Y77893000D01*
X122920000Y77412000D01*
G37*
G36*
X122920000Y33732000D02*
G01*
X122412000Y33732000D01*
X122412000Y34213000D01*
X122920000Y34213000D01*
X122920000Y33732000D01*
G37*
G36*
X68572000Y121092000D02*
G01*
X68064000Y121092000D01*
X68064000Y121573000D01*
X68572000Y121573000D01*
X68572000Y121092000D01*
G37*
G36*
X68572000Y77412000D02*
G01*
X68064000Y77412000D01*
X68064000Y77893000D01*
X68572000Y77893000D01*
X68572000Y77412000D01*
G37*
G36*
X68572000Y33732000D02*
G01*
X68064000Y33732000D01*
X68064000Y34213000D01*
X68572000Y34213000D01*
X68572000Y33732000D01*
G37*
G36*
X14224000Y121092000D02*
G01*
X13716000Y121092000D01*
X13716000Y121573000D01*
X14224000Y121573000D01*
X14224000Y121092000D01*
G37*
G36*
X14224000Y77412000D02*
G01*
X13716000Y77412000D01*
X13716000Y77893000D01*
X14224000Y77893000D01*
X14224000Y77412000D01*
G37*
%TO.C,JP4*%
G36*
X150428200Y124108250D02*
G01*
X149920200Y124108250D01*
X149920200Y124589250D01*
X150428200Y124589250D01*
X150428200Y124108250D01*
G37*
G36*
X150428200Y80428250D02*
G01*
X149920200Y80428250D01*
X149920200Y80909250D01*
X150428200Y80909250D01*
X150428200Y80428250D01*
G37*
G36*
X150428200Y36748250D02*
G01*
X149920200Y36748250D01*
X149920200Y37229250D01*
X150428200Y37229250D01*
X150428200Y36748250D01*
G37*
G36*
X96080200Y124108250D02*
G01*
X95572200Y124108250D01*
X95572200Y124589250D01*
X96080200Y124589250D01*
X96080200Y124108250D01*
G37*
G36*
X96080200Y80428250D02*
G01*
X95572200Y80428250D01*
X95572200Y80909250D01*
X96080200Y80909250D01*
X96080200Y80428250D01*
G37*
G36*
X96080200Y36748250D02*
G01*
X95572200Y36748250D01*
X95572200Y37229250D01*
X96080200Y37229250D01*
X96080200Y36748250D01*
G37*
G36*
X41732200Y124108250D02*
G01*
X41224200Y124108250D01*
X41224200Y124589250D01*
X41732200Y124589250D01*
X41732200Y124108250D01*
G37*
G36*
X41732200Y80428250D02*
G01*
X41224200Y80428250D01*
X41224200Y80909250D01*
X41732200Y80909250D01*
X41732200Y80428250D01*
G37*
G36*
X41732200Y36748250D02*
G01*
X41224200Y36748250D01*
X41224200Y37229250D01*
X41732200Y37229250D01*
X41732200Y36748250D01*
G37*
%TO.C,JP3*%
G36*
X14224000Y33732000D02*
G01*
X13716000Y33732000D01*
X13716000Y34213000D01*
X14224000Y34213000D01*
X14224000Y33732000D01*
G37*
%TO.C,JP7*%
G36*
X1506750Y12446000D02*
G01*
X1025750Y12446000D01*
X1025750Y12954000D01*
X1506750Y12954000D01*
X1506750Y12446000D01*
G37*
%TO.C,JP8*%
G36*
X14224000Y31192000D02*
G01*
X13716000Y31192000D01*
X13716000Y31673000D01*
X14224000Y31673000D01*
X14224000Y31192000D01*
G37*
%TO.C,JP1*%
G36*
X9130500Y26416000D02*
G01*
X8649500Y26416000D01*
X8649500Y26924000D01*
X9130500Y26924000D01*
X9130500Y26416000D01*
G37*
%TO.C,JP2*%
G36*
X14224000Y36272000D02*
G01*
X13716000Y36272000D01*
X13716000Y36753000D01*
X14224000Y36753000D01*
X14224000Y36272000D01*
G37*
%TO.C,JP6*%
G36*
X14224000Y26112000D02*
G01*
X13716000Y26112000D01*
X13716000Y26593000D01*
X14224000Y26593000D01*
X14224000Y26112000D01*
G37*
%TO.C,JP5*%
G36*
X14224000Y28652000D02*
G01*
X13716000Y28652000D01*
X13716000Y29133000D01*
X14224000Y29133000D01*
X14224000Y28652000D01*
G37*
%TD*%
D11*
%TO.C,*%
X164631500Y128540000D03*
%TD*%
%TO.C,*%
X-5135500Y128540000D03*
%TD*%
%TO.C,*%
X-5135500Y2000000D03*
%TD*%
D12*
%TO.C,JP5*%
X122145300Y116252500D03*
X123186700Y116252500D03*
%TD*%
%TO.C,JP5*%
X122145300Y72572500D03*
X123186700Y72572500D03*
%TD*%
%TO.C,JP5*%
X122145300Y28892500D03*
X123186700Y28892500D03*
%TD*%
%TO.C,JP5*%
X67797300Y116252500D03*
X68838700Y116252500D03*
%TD*%
%TO.C,JP5*%
X67797300Y72572500D03*
X68838700Y72572500D03*
%TD*%
%TO.C,JP5*%
X67797300Y28892500D03*
X68838700Y28892500D03*
%TD*%
%TO.C,JP5*%
X13449300Y116252500D03*
X14490700Y116252500D03*
%TD*%
%TO.C,JP5*%
X13449300Y72572500D03*
X14490700Y72572500D03*
%TD*%
%TO.C,JP6*%
X122145300Y113712500D03*
X123186700Y113712500D03*
%TD*%
%TO.C,JP6*%
X122145300Y70032500D03*
X123186700Y70032500D03*
%TD*%
%TO.C,JP6*%
X122145300Y26352500D03*
X123186700Y26352500D03*
%TD*%
%TO.C,JP6*%
X67797300Y113712500D03*
X68838700Y113712500D03*
%TD*%
%TO.C,JP6*%
X67797300Y70032500D03*
X68838700Y70032500D03*
%TD*%
%TO.C,JP6*%
X67797300Y26352500D03*
X68838700Y26352500D03*
%TD*%
%TO.C,JP6*%
X13449300Y113712500D03*
X14490700Y113712500D03*
%TD*%
%TO.C,JP6*%
X13449300Y70032500D03*
X14490700Y70032500D03*
%TD*%
D13*
%TO.C,TP1*%
X129968500Y115300000D03*
%TD*%
%TO.C,TP1*%
X129968500Y71620000D03*
%TD*%
%TO.C,TP1*%
X129968500Y27940000D03*
%TD*%
%TO.C,TP1*%
X75620500Y115300000D03*
%TD*%
%TO.C,TP1*%
X75620500Y71620000D03*
%TD*%
%TO.C,TP1*%
X75620500Y27940000D03*
%TD*%
%TO.C,TP1*%
X21272500Y115300000D03*
%TD*%
%TO.C,TP1*%
X21272500Y71620000D03*
%TD*%
D12*
%TO.C,JP2*%
X122145300Y123872500D03*
X123186700Y123872500D03*
%TD*%
%TO.C,JP2*%
X122145300Y80192500D03*
X123186700Y80192500D03*
%TD*%
%TO.C,JP2*%
X122145300Y36512500D03*
X123186700Y36512500D03*
%TD*%
%TO.C,JP2*%
X67797300Y123872500D03*
X68838700Y123872500D03*
%TD*%
%TO.C,JP2*%
X67797300Y80192500D03*
X68838700Y80192500D03*
%TD*%
%TO.C,JP2*%
X67797300Y36512500D03*
X68838700Y36512500D03*
%TD*%
%TO.C,JP2*%
X13449300Y123872500D03*
X14490700Y123872500D03*
%TD*%
%TO.C,JP2*%
X13449300Y80192500D03*
X14490700Y80192500D03*
%TD*%
D13*
%TO.C,TP2*%
X146002250Y126253750D03*
%TD*%
%TO.C,TP2*%
X146002250Y82573750D03*
%TD*%
%TO.C,TP2*%
X146002250Y38893750D03*
%TD*%
%TO.C,TP2*%
X91654250Y126253750D03*
%TD*%
%TO.C,TP2*%
X91654250Y82573750D03*
%TD*%
%TO.C,TP2*%
X91654250Y38893750D03*
%TD*%
%TO.C,TP2*%
X37306250Y126253750D03*
%TD*%
%TO.C,TP2*%
X37306250Y82573750D03*
%TD*%
D14*
%TO.C,FID1*%
X158861000Y87995000D03*
%TD*%
%TO.C,FID1*%
X158861000Y44315000D03*
%TD*%
%TO.C,FID1*%
X158861000Y635000D03*
%TD*%
%TO.C,FID1*%
X104513000Y87995000D03*
%TD*%
%TO.C,FID1*%
X104513000Y44315000D03*
%TD*%
%TO.C,FID1*%
X104513000Y635000D03*
%TD*%
%TO.C,FID1*%
X50165000Y87995000D03*
%TD*%
%TO.C,FID1*%
X50165000Y44315000D03*
%TD*%
%TO.C,FID2*%
X109331000Y129905000D03*
%TD*%
%TO.C,FID2*%
X109331000Y86225000D03*
%TD*%
%TO.C,FID2*%
X109331000Y42545000D03*
%TD*%
%TO.C,FID2*%
X54983000Y129905000D03*
%TD*%
%TO.C,FID2*%
X54983000Y86225000D03*
%TD*%
%TO.C,FID2*%
X54983000Y42545000D03*
%TD*%
%TO.C,FID2*%
X635000Y129905000D03*
%TD*%
%TO.C,FID2*%
X635000Y86225000D03*
%TD*%
D15*
%TO.C,JP1*%
X117586000Y113509300D03*
X117586000Y114550700D03*
%TD*%
%TO.C,JP1*%
X117586000Y69829300D03*
X117586000Y70870700D03*
%TD*%
%TO.C,JP1*%
X117586000Y26149300D03*
X117586000Y27190700D03*
%TD*%
%TO.C,JP1*%
X63238000Y113509300D03*
X63238000Y114550700D03*
%TD*%
%TO.C,JP1*%
X63238000Y69829300D03*
X63238000Y70870700D03*
%TD*%
%TO.C,JP1*%
X63238000Y26149300D03*
X63238000Y27190700D03*
%TD*%
%TO.C,JP1*%
X8890000Y113509300D03*
X8890000Y114550700D03*
%TD*%
%TO.C,JP1*%
X8890000Y69829300D03*
X8890000Y70870700D03*
%TD*%
D16*
%TO.C,TP3*%
X153304750Y126253750D03*
%TD*%
%TO.C,TP3*%
X153304750Y82573750D03*
%TD*%
%TO.C,TP3*%
X153304750Y38893750D03*
%TD*%
%TO.C,TP3*%
X98956750Y126253750D03*
%TD*%
%TO.C,TP3*%
X98956750Y82573750D03*
%TD*%
%TO.C,TP3*%
X98956750Y38893750D03*
%TD*%
%TO.C,TP3*%
X44608750Y126253750D03*
%TD*%
%TO.C,TP3*%
X44608750Y82573750D03*
%TD*%
D12*
%TO.C,JP8*%
X122145300Y118792500D03*
X123186700Y118792500D03*
%TD*%
%TO.C,JP8*%
X122145300Y75112500D03*
X123186700Y75112500D03*
%TD*%
%TO.C,JP8*%
X122145300Y31432500D03*
X123186700Y31432500D03*
%TD*%
%TO.C,JP8*%
X67797300Y118792500D03*
X68838700Y118792500D03*
%TD*%
%TO.C,JP8*%
X67797300Y75112500D03*
X68838700Y75112500D03*
%TD*%
%TO.C,JP8*%
X67797300Y31432500D03*
X68838700Y31432500D03*
%TD*%
%TO.C,JP8*%
X13449300Y118792500D03*
X14490700Y118792500D03*
%TD*%
%TO.C,JP8*%
X13449300Y75112500D03*
X14490700Y75112500D03*
%TD*%
D17*
%TO.C,JP7*%
X109962250Y100580700D03*
X109962250Y99539300D03*
%TD*%
%TO.C,JP7*%
X109962250Y56900700D03*
X109962250Y55859300D03*
%TD*%
%TO.C,JP7*%
X109962250Y13220700D03*
X109962250Y12179300D03*
%TD*%
%TO.C,JP7*%
X55614250Y100580700D03*
X55614250Y99539300D03*
%TD*%
%TO.C,JP7*%
X55614250Y56900700D03*
X55614250Y55859300D03*
%TD*%
%TO.C,JP7*%
X55614250Y13220700D03*
X55614250Y12179300D03*
%TD*%
%TO.C,JP7*%
X1266250Y100580700D03*
X1266250Y99539300D03*
%TD*%
%TO.C,JP7*%
X1266250Y56900700D03*
X1266250Y55859300D03*
%TD*%
D12*
%TO.C,JP3*%
X122145300Y121332500D03*
X123186700Y121332500D03*
%TD*%
%TO.C,JP3*%
X122145300Y77652500D03*
X123186700Y77652500D03*
%TD*%
%TO.C,JP3*%
X122145300Y33972500D03*
X123186700Y33972500D03*
%TD*%
%TO.C,JP3*%
X67797300Y121332500D03*
X68838700Y121332500D03*
%TD*%
%TO.C,JP3*%
X67797300Y77652500D03*
X68838700Y77652500D03*
%TD*%
%TO.C,JP3*%
X67797300Y33972500D03*
X68838700Y33972500D03*
%TD*%
%TO.C,JP3*%
X13449300Y121332500D03*
X14490700Y121332500D03*
%TD*%
%TO.C,JP3*%
X13449300Y77652500D03*
X14490700Y77652500D03*
%TD*%
D18*
%TO.C,JP4*%
X150694900Y124348750D03*
X149653500Y124348750D03*
D12*
X148612100Y124348750D03*
%TD*%
D18*
%TO.C,JP4*%
X150694900Y80668750D03*
X149653500Y80668750D03*
D12*
X148612100Y80668750D03*
%TD*%
D18*
%TO.C,JP4*%
X150694900Y36988750D03*
X149653500Y36988750D03*
D12*
X148612100Y36988750D03*
%TD*%
D18*
%TO.C,JP4*%
X96346900Y124348750D03*
X95305500Y124348750D03*
D12*
X94264100Y124348750D03*
%TD*%
D18*
%TO.C,JP4*%
X96346900Y80668750D03*
X95305500Y80668750D03*
D12*
X94264100Y80668750D03*
%TD*%
D18*
%TO.C,JP4*%
X96346900Y36988750D03*
X95305500Y36988750D03*
D12*
X94264100Y36988750D03*
%TD*%
D18*
%TO.C,JP4*%
X41998900Y124348750D03*
X40957500Y124348750D03*
D12*
X39916100Y124348750D03*
%TD*%
D18*
%TO.C,JP4*%
X41998900Y80668750D03*
X40957500Y80668750D03*
D12*
X39916100Y80668750D03*
%TD*%
D19*
%TO.C,ST4*%
X111236000Y89900000D03*
%TD*%
%TO.C,ST4*%
X111236000Y46220000D03*
%TD*%
%TO.C,ST4*%
X111236000Y2540000D03*
%TD*%
%TO.C,ST4*%
X56888000Y89900000D03*
%TD*%
%TO.C,ST4*%
X56888000Y46220000D03*
%TD*%
%TO.C,ST4*%
X56888000Y2540000D03*
%TD*%
%TO.C,ST4*%
X2540000Y89900000D03*
%TD*%
%TO.C,ST4*%
X2540000Y46220000D03*
%TD*%
%TO.C,ST3*%
X111236000Y128000000D03*
%TD*%
%TO.C,ST3*%
X111236000Y84320000D03*
%TD*%
%TO.C,ST3*%
X111236000Y40640000D03*
%TD*%
%TO.C,ST3*%
X56888000Y128000000D03*
%TD*%
%TO.C,ST3*%
X56888000Y84320000D03*
%TD*%
%TO.C,ST3*%
X56888000Y40640000D03*
%TD*%
%TO.C,ST3*%
X2540000Y128000000D03*
%TD*%
%TO.C,ST3*%
X2540000Y84320000D03*
%TD*%
D20*
%TO.C,J3*%
X157114750Y101965000D03*
X157114750Y96885000D03*
%TD*%
%TO.C,J3*%
X157114750Y58285000D03*
X157114750Y53205000D03*
%TD*%
%TO.C,J3*%
X157114750Y14605000D03*
X157114750Y9525000D03*
%TD*%
%TO.C,J3*%
X102766750Y101965000D03*
X102766750Y96885000D03*
%TD*%
%TO.C,J3*%
X102766750Y58285000D03*
X102766750Y53205000D03*
%TD*%
%TO.C,J3*%
X102766750Y14605000D03*
X102766750Y9525000D03*
%TD*%
%TO.C,J3*%
X48418750Y101965000D03*
X48418750Y96885000D03*
%TD*%
%TO.C,J3*%
X48418750Y58285000D03*
X48418750Y53205000D03*
%TD*%
D21*
%TO.C,J10*%
X132826000Y88630000D03*
X135366000Y88630000D03*
X137906000Y88630000D03*
X140446000Y88630000D03*
X142986000Y88630000D03*
X145526000Y88630000D03*
%TD*%
%TO.C,J10*%
X132826000Y44950000D03*
X135366000Y44950000D03*
X137906000Y44950000D03*
X140446000Y44950000D03*
X142986000Y44950000D03*
X145526000Y44950000D03*
%TD*%
%TO.C,J10*%
X132826000Y1270000D03*
X135366000Y1270000D03*
X137906000Y1270000D03*
X140446000Y1270000D03*
X142986000Y1270000D03*
X145526000Y1270000D03*
%TD*%
%TO.C,J10*%
X78478000Y88630000D03*
X81018000Y88630000D03*
X83558000Y88630000D03*
X86098000Y88630000D03*
X88638000Y88630000D03*
X91178000Y88630000D03*
%TD*%
%TO.C,J10*%
X78478000Y44950000D03*
X81018000Y44950000D03*
X83558000Y44950000D03*
X86098000Y44950000D03*
X88638000Y44950000D03*
X91178000Y44950000D03*
%TD*%
%TO.C,J10*%
X78478000Y1270000D03*
X81018000Y1270000D03*
X83558000Y1270000D03*
X86098000Y1270000D03*
X88638000Y1270000D03*
X91178000Y1270000D03*
%TD*%
%TO.C,J10*%
X24130000Y88630000D03*
X26670000Y88630000D03*
X29210000Y88630000D03*
X31750000Y88630000D03*
X34290000Y88630000D03*
X36830000Y88630000D03*
%TD*%
%TO.C,J10*%
X24130000Y44950000D03*
X26670000Y44950000D03*
X29210000Y44950000D03*
X31750000Y44950000D03*
X34290000Y44950000D03*
X36830000Y44950000D03*
%TD*%
D19*
%TO.C,ST1*%
X156956000Y128000000D03*
%TD*%
%TO.C,ST1*%
X156956000Y84320000D03*
%TD*%
%TO.C,ST1*%
X156956000Y40640000D03*
%TD*%
%TO.C,ST1*%
X102608000Y128000000D03*
%TD*%
%TO.C,ST1*%
X102608000Y84320000D03*
%TD*%
%TO.C,ST1*%
X102608000Y40640000D03*
%TD*%
%TO.C,ST1*%
X48260000Y128000000D03*
%TD*%
%TO.C,ST1*%
X48260000Y84320000D03*
%TD*%
D21*
%TO.C,J9*%
X122666000Y88630000D03*
X125206000Y88630000D03*
X127746000Y88630000D03*
X130286000Y88630000D03*
%TD*%
%TO.C,J9*%
X122666000Y44950000D03*
X125206000Y44950000D03*
X127746000Y44950000D03*
X130286000Y44950000D03*
%TD*%
%TO.C,J9*%
X122666000Y1270000D03*
X125206000Y1270000D03*
X127746000Y1270000D03*
X130286000Y1270000D03*
%TD*%
%TO.C,J9*%
X68318000Y88630000D03*
X70858000Y88630000D03*
X73398000Y88630000D03*
X75938000Y88630000D03*
%TD*%
%TO.C,J9*%
X68318000Y44950000D03*
X70858000Y44950000D03*
X73398000Y44950000D03*
X75938000Y44950000D03*
%TD*%
%TO.C,J9*%
X68318000Y1270000D03*
X70858000Y1270000D03*
X73398000Y1270000D03*
X75938000Y1270000D03*
%TD*%
%TO.C,J9*%
X13970000Y88630000D03*
X16510000Y88630000D03*
X19050000Y88630000D03*
X21590000Y88630000D03*
%TD*%
%TO.C,J9*%
X13970000Y44950000D03*
X16510000Y44950000D03*
X19050000Y44950000D03*
X21590000Y44950000D03*
%TD*%
D20*
%TO.C,J5*%
X157114750Y121015000D03*
X157114750Y115935000D03*
%TD*%
%TO.C,J5*%
X157114750Y77335000D03*
X157114750Y72255000D03*
%TD*%
%TO.C,J5*%
X157114750Y33655000D03*
X157114750Y28575000D03*
%TD*%
%TO.C,J5*%
X102766750Y121015000D03*
X102766750Y115935000D03*
%TD*%
%TO.C,J5*%
X102766750Y77335000D03*
X102766750Y72255000D03*
%TD*%
%TO.C,J5*%
X102766750Y33655000D03*
X102766750Y28575000D03*
%TD*%
%TO.C,J5*%
X48418750Y121015000D03*
X48418750Y115935000D03*
%TD*%
%TO.C,J5*%
X48418750Y77335000D03*
X48418750Y72255000D03*
%TD*%
D21*
%TO.C,J6*%
X142986000Y129270000D03*
X140446000Y129270000D03*
X137906000Y129270000D03*
X135366000Y129270000D03*
X132826000Y129270000D03*
X130286000Y129270000D03*
X127746000Y129270000D03*
X125206000Y129270000D03*
X122666000Y129270000D03*
%TD*%
%TO.C,J6*%
X142986000Y85590000D03*
X140446000Y85590000D03*
X137906000Y85590000D03*
X135366000Y85590000D03*
X132826000Y85590000D03*
X130286000Y85590000D03*
X127746000Y85590000D03*
X125206000Y85590000D03*
X122666000Y85590000D03*
%TD*%
%TO.C,J6*%
X142986000Y41910000D03*
X140446000Y41910000D03*
X137906000Y41910000D03*
X135366000Y41910000D03*
X132826000Y41910000D03*
X130286000Y41910000D03*
X127746000Y41910000D03*
X125206000Y41910000D03*
X122666000Y41910000D03*
%TD*%
%TO.C,J6*%
X88638000Y129270000D03*
X86098000Y129270000D03*
X83558000Y129270000D03*
X81018000Y129270000D03*
X78478000Y129270000D03*
X75938000Y129270000D03*
X73398000Y129270000D03*
X70858000Y129270000D03*
X68318000Y129270000D03*
%TD*%
%TO.C,J6*%
X88638000Y85590000D03*
X86098000Y85590000D03*
X83558000Y85590000D03*
X81018000Y85590000D03*
X78478000Y85590000D03*
X75938000Y85590000D03*
X73398000Y85590000D03*
X70858000Y85590000D03*
X68318000Y85590000D03*
%TD*%
%TO.C,J6*%
X88638000Y41910000D03*
X86098000Y41910000D03*
X83558000Y41910000D03*
X81018000Y41910000D03*
X78478000Y41910000D03*
X75938000Y41910000D03*
X73398000Y41910000D03*
X70858000Y41910000D03*
X68318000Y41910000D03*
%TD*%
%TO.C,J6*%
X34290000Y129270000D03*
X31750000Y129270000D03*
X29210000Y129270000D03*
X26670000Y129270000D03*
X24130000Y129270000D03*
X21590000Y129270000D03*
X19050000Y129270000D03*
X16510000Y129270000D03*
X13970000Y129270000D03*
%TD*%
%TO.C,J6*%
X34290000Y85590000D03*
X31750000Y85590000D03*
X29210000Y85590000D03*
X26670000Y85590000D03*
X24130000Y85590000D03*
X21590000Y85590000D03*
X19050000Y85590000D03*
X16510000Y85590000D03*
X13970000Y85590000D03*
%TD*%
D19*
%TO.C,ST2*%
X156956000Y89900000D03*
%TD*%
%TO.C,ST2*%
X156956000Y46220000D03*
%TD*%
%TO.C,ST2*%
X156956000Y2540000D03*
%TD*%
%TO.C,ST2*%
X102608000Y89900000D03*
%TD*%
%TO.C,ST2*%
X102608000Y46220000D03*
%TD*%
%TO.C,ST2*%
X102608000Y2540000D03*
%TD*%
%TO.C,ST2*%
X48260000Y89900000D03*
%TD*%
%TO.C,ST2*%
X48260000Y46220000D03*
%TD*%
D22*
%TO.C,J1*%
X113601000Y102950000D03*
X113601000Y97170000D03*
D23*
X109951000Y104378000D03*
D24*
X114131000Y104378000D03*
X114131000Y95742000D03*
D23*
X109951000Y95742000D03*
%TD*%
D22*
%TO.C,J1*%
X113601000Y59270000D03*
X113601000Y53490000D03*
D23*
X109951000Y60698000D03*
D24*
X114131000Y60698000D03*
X114131000Y52062000D03*
D23*
X109951000Y52062000D03*
%TD*%
D22*
%TO.C,J1*%
X113601000Y15590000D03*
X113601000Y9810000D03*
D23*
X109951000Y17018000D03*
D24*
X114131000Y17018000D03*
X114131000Y8382000D03*
D23*
X109951000Y8382000D03*
%TD*%
D22*
%TO.C,J1*%
X59253000Y102950000D03*
X59253000Y97170000D03*
D23*
X55603000Y104378000D03*
D24*
X59783000Y104378000D03*
X59783000Y95742000D03*
D23*
X55603000Y95742000D03*
%TD*%
D22*
%TO.C,J1*%
X59253000Y59270000D03*
X59253000Y53490000D03*
D23*
X55603000Y60698000D03*
D24*
X59783000Y60698000D03*
X59783000Y52062000D03*
D23*
X55603000Y52062000D03*
%TD*%
D22*
%TO.C,J1*%
X59253000Y15590000D03*
X59253000Y9810000D03*
D23*
X55603000Y17018000D03*
D24*
X59783000Y17018000D03*
X59783000Y8382000D03*
D23*
X55603000Y8382000D03*
%TD*%
D22*
%TO.C,J1*%
X4905000Y102950000D03*
X4905000Y97170000D03*
D23*
X1255000Y104378000D03*
D24*
X5435000Y104378000D03*
X5435000Y95742000D03*
D23*
X1255000Y95742000D03*
%TD*%
D22*
%TO.C,J1*%
X4905000Y59270000D03*
X4905000Y53490000D03*
D23*
X1255000Y60698000D03*
D24*
X5435000Y60698000D03*
X5435000Y52062000D03*
D23*
X1255000Y52062000D03*
%TD*%
D21*
%TO.C,J2*%
X109966000Y121650000D03*
X109966000Y119110000D03*
X109966000Y116570000D03*
X109966000Y114030000D03*
X109966000Y111490000D03*
X109966000Y108950000D03*
%TD*%
%TO.C,J2*%
X109966000Y77970000D03*
X109966000Y75430000D03*
X109966000Y72890000D03*
X109966000Y70350000D03*
X109966000Y67810000D03*
X109966000Y65270000D03*
%TD*%
%TO.C,J2*%
X109966000Y34290000D03*
X109966000Y31750000D03*
X109966000Y29210000D03*
X109966000Y26670000D03*
X109966000Y24130000D03*
X109966000Y21590000D03*
%TD*%
%TO.C,J2*%
X55618000Y121650000D03*
X55618000Y119110000D03*
X55618000Y116570000D03*
X55618000Y114030000D03*
X55618000Y111490000D03*
X55618000Y108950000D03*
%TD*%
%TO.C,J2*%
X55618000Y77970000D03*
X55618000Y75430000D03*
X55618000Y72890000D03*
X55618000Y70350000D03*
X55618000Y67810000D03*
X55618000Y65270000D03*
%TD*%
%TO.C,J2*%
X55618000Y34290000D03*
X55618000Y31750000D03*
X55618000Y29210000D03*
X55618000Y26670000D03*
X55618000Y24130000D03*
X55618000Y21590000D03*
%TD*%
%TO.C,J2*%
X1270000Y121650000D03*
X1270000Y119110000D03*
X1270000Y116570000D03*
X1270000Y114030000D03*
X1270000Y111490000D03*
X1270000Y108950000D03*
%TD*%
%TO.C,J2*%
X1270000Y77970000D03*
X1270000Y75430000D03*
X1270000Y72890000D03*
X1270000Y70350000D03*
X1270000Y67810000D03*
X1270000Y65270000D03*
%TD*%
%TO.C,J2*%
X1270000Y34290000D03*
X1270000Y31750000D03*
X1270000Y29210000D03*
X1270000Y26670000D03*
X1270000Y24130000D03*
X1270000Y21590000D03*
%TD*%
D22*
%TO.C,J1*%
X4905000Y15590000D03*
X4905000Y9810000D03*
D23*
X1255000Y17018000D03*
D24*
X5435000Y17018000D03*
X5435000Y8382000D03*
D23*
X1255000Y8382000D03*
%TD*%
D19*
%TO.C,ST2*%
X48260000Y2540000D03*
%TD*%
D21*
%TO.C,J6*%
X34290000Y41910000D03*
X31750000Y41910000D03*
X29210000Y41910000D03*
X26670000Y41910000D03*
X24130000Y41910000D03*
X21590000Y41910000D03*
X19050000Y41910000D03*
X16510000Y41910000D03*
X13970000Y41910000D03*
%TD*%
D20*
%TO.C,J5*%
X48418750Y33655000D03*
X48418750Y28575000D03*
%TD*%
D21*
%TO.C,J9*%
X13970000Y1270000D03*
X16510000Y1270000D03*
X19050000Y1270000D03*
X21590000Y1270000D03*
%TD*%
D19*
%TO.C,ST1*%
X48260000Y40640000D03*
%TD*%
D21*
%TO.C,J10*%
X24130000Y1270000D03*
X26670000Y1270000D03*
X29210000Y1270000D03*
X31750000Y1270000D03*
X34290000Y1270000D03*
X36830000Y1270000D03*
%TD*%
D20*
%TO.C,J3*%
X48418750Y14605000D03*
X48418750Y9525000D03*
%TD*%
D19*
%TO.C,ST3*%
X2540000Y40640000D03*
%TD*%
%TO.C,ST4*%
X2540000Y2540000D03*
%TD*%
D18*
%TO.C,JP4*%
X41998900Y36988750D03*
X40957500Y36988750D03*
D12*
X39916100Y36988750D03*
%TD*%
%TO.C,JP3*%
X13449300Y33972500D03*
X14490700Y33972500D03*
%TD*%
D17*
%TO.C,JP7*%
X1266250Y13220700D03*
X1266250Y12179300D03*
%TD*%
D12*
%TO.C,JP8*%
X13449300Y31432500D03*
X14490700Y31432500D03*
%TD*%
D16*
%TO.C,TP3*%
X44608750Y38893750D03*
%TD*%
D15*
%TO.C,JP1*%
X8890000Y26149300D03*
X8890000Y27190700D03*
%TD*%
D14*
%TO.C,FID2*%
X635000Y42545000D03*
%TD*%
%TO.C,FID1*%
X50165000Y635000D03*
%TD*%
D13*
%TO.C,TP2*%
X37306250Y38893750D03*
%TD*%
D12*
%TO.C,JP2*%
X13449300Y36512500D03*
X14490700Y36512500D03*
%TD*%
D13*
%TO.C,TP1*%
X21272500Y27940000D03*
%TD*%
D12*
%TO.C,JP6*%
X13449300Y26352500D03*
X14490700Y26352500D03*
%TD*%
%TO.C,JP5*%
X13449300Y28892500D03*
X14490700Y28892500D03*
%TD*%
M02*
