%TF.GenerationSoftware,KiCad,Pcbnew,8.0.7*%
%TF.CreationDate,2025-04-01T11:43:10-06:00*%
%TF.ProjectId,SparkFun_GNSS_LG580P_panelized,53706172-6b46-4756-9e5f-474e53535f4c,rev?*%
%TF.SameCoordinates,Original*%
%TF.FileFunction,Soldermask,Bot*%
%TF.FilePolarity,Negative*%
%FSLAX46Y46*%
G04 Gerber Fmt 4.6, Leading zero omitted, Abs format (unit mm)*
G04 Created by KiCad (PCBNEW 8.0.7) date 2025-04-01 11:43:10*
%MOMM*%
%LPD*%
G01*
G04 APERTURE LIST*
%TA.AperFunction,Profile*%
%ADD10C,0.100000*%
%TD*%
%ADD11C,0.250000*%
%ADD12C,0.500000*%
G04 APERTURE END LIST*
D10*
X-3548000Y-500000D02*
X-3548000Y131040000D01*
X163044000Y-500000D02*
X-3548000Y-500000D01*
X163044000Y131040000D02*
X163044000Y-500000D01*
X-3548000Y131040000D02*
X163044000Y131040000D01*
X-9898000Y-6850000D02*
X-9898000Y137390000D01*
X169394000Y-6850000D02*
X-9898000Y-6850000D01*
X169394000Y137390000D02*
X169394000Y-6850000D01*
X-9898000Y137390000D02*
X169394000Y137390000D01*
X108696000Y130540000D02*
X159496000Y130540000D01*
X159496000Y87360000D01*
X108696000Y87360000D01*
X108696000Y130540000D01*
X108696000Y86860000D02*
X159496000Y86860000D01*
X159496000Y43680000D01*
X108696000Y43680000D01*
X108696000Y86860000D01*
X108696000Y43180000D02*
X159496000Y43180000D01*
X159496000Y0D01*
X108696000Y0D01*
X108696000Y43180000D01*
X54348000Y130540000D02*
X105148000Y130540000D01*
X105148000Y87360000D01*
X54348000Y87360000D01*
X54348000Y130540000D01*
X54348000Y86860000D02*
X105148000Y86860000D01*
X105148000Y43680000D01*
X54348000Y43680000D01*
X54348000Y86860000D01*
X54348000Y43180000D02*
X105148000Y43180000D01*
X105148000Y0D01*
X54348000Y0D01*
X54348000Y43180000D01*
X0Y130540000D02*
X50800000Y130540000D01*
X50800000Y87360000D01*
X0Y87360000D01*
X0Y130540000D01*
X0Y86860000D02*
X50800000Y86860000D01*
X50800000Y43680000D01*
X0Y43680000D01*
X0Y86860000D01*
X0Y43180000D02*
X50800000Y43180000D01*
X50800000Y0D01*
X0Y0D01*
X0Y43180000D01*
D11*
X162182238Y58508095D02*
X161229857Y57841428D01*
X162182238Y57365238D02*
X160182238Y57365238D01*
X160182238Y57365238D02*
X160182238Y58127143D01*
X160182238Y58127143D02*
X160277476Y58317619D01*
X160277476Y58317619D02*
X160372714Y58412857D01*
X160372714Y58412857D02*
X160563190Y58508095D01*
X160563190Y58508095D02*
X160848904Y58508095D01*
X160848904Y58508095D02*
X161039380Y58412857D01*
X161039380Y58412857D02*
X161134619Y58317619D01*
X161134619Y58317619D02*
X161229857Y58127143D01*
X161229857Y58127143D02*
X161229857Y57365238D01*
X160182238Y59746190D02*
X160182238Y60127143D01*
X160182238Y60127143D02*
X160277476Y60317619D01*
X160277476Y60317619D02*
X160467952Y60508095D01*
X160467952Y60508095D02*
X160848904Y60603333D01*
X160848904Y60603333D02*
X161515571Y60603333D01*
X161515571Y60603333D02*
X161896523Y60508095D01*
X161896523Y60508095D02*
X162087000Y60317619D01*
X162087000Y60317619D02*
X162182238Y60127143D01*
X162182238Y60127143D02*
X162182238Y59746190D01*
X162182238Y59746190D02*
X162087000Y59555714D01*
X162087000Y59555714D02*
X161896523Y59365238D01*
X161896523Y59365238D02*
X161515571Y59270000D01*
X161515571Y59270000D02*
X160848904Y59270000D01*
X160848904Y59270000D02*
X160467952Y59365238D01*
X160467952Y59365238D02*
X160277476Y59555714D01*
X160277476Y59555714D02*
X160182238Y59746190D01*
X160182238Y61460476D02*
X161801285Y61460476D01*
X161801285Y61460476D02*
X161991761Y61555714D01*
X161991761Y61555714D02*
X162087000Y61650952D01*
X162087000Y61650952D02*
X162182238Y61841428D01*
X162182238Y61841428D02*
X162182238Y62222381D01*
X162182238Y62222381D02*
X162087000Y62412857D01*
X162087000Y62412857D02*
X161991761Y62508095D01*
X161991761Y62508095D02*
X161801285Y62603333D01*
X161801285Y62603333D02*
X160182238Y62603333D01*
X160182238Y63270000D02*
X160182238Y64412857D01*
X162182238Y63841428D02*
X160182238Y63841428D01*
X161134619Y65079524D02*
X161134619Y65746191D01*
X162182238Y66031905D02*
X162182238Y65079524D01*
X162182238Y65079524D02*
X160182238Y65079524D01*
X160182238Y65079524D02*
X160182238Y66031905D01*
X160182238Y68793810D02*
X160182238Y69174763D01*
X160182238Y69174763D02*
X160277476Y69365239D01*
X160277476Y69365239D02*
X160467952Y69555715D01*
X160467952Y69555715D02*
X160848904Y69650953D01*
X160848904Y69650953D02*
X161515571Y69650953D01*
X161515571Y69650953D02*
X161896523Y69555715D01*
X161896523Y69555715D02*
X162087000Y69365239D01*
X162087000Y69365239D02*
X162182238Y69174763D01*
X162182238Y69174763D02*
X162182238Y68793810D01*
X162182238Y68793810D02*
X162087000Y68603334D01*
X162087000Y68603334D02*
X161896523Y68412858D01*
X161896523Y68412858D02*
X161515571Y68317620D01*
X161515571Y68317620D02*
X160848904Y68317620D01*
X160848904Y68317620D02*
X160467952Y68412858D01*
X160467952Y68412858D02*
X160277476Y68603334D01*
X160277476Y68603334D02*
X160182238Y68793810D01*
X160182238Y70508096D02*
X161801285Y70508096D01*
X161801285Y70508096D02*
X161991761Y70603334D01*
X161991761Y70603334D02*
X162087000Y70698572D01*
X162087000Y70698572D02*
X162182238Y70889048D01*
X162182238Y70889048D02*
X162182238Y71270001D01*
X162182238Y71270001D02*
X162087000Y71460477D01*
X162087000Y71460477D02*
X161991761Y71555715D01*
X161991761Y71555715D02*
X161801285Y71650953D01*
X161801285Y71650953D02*
X160182238Y71650953D01*
X160182238Y72317620D02*
X160182238Y73460477D01*
X162182238Y72889048D02*
X160182238Y72889048D01*
X107834238Y58508095D02*
X106881857Y57841428D01*
X107834238Y57365238D02*
X105834238Y57365238D01*
X105834238Y57365238D02*
X105834238Y58127143D01*
X105834238Y58127143D02*
X105929476Y58317619D01*
X105929476Y58317619D02*
X106024714Y58412857D01*
X106024714Y58412857D02*
X106215190Y58508095D01*
X106215190Y58508095D02*
X106500904Y58508095D01*
X106500904Y58508095D02*
X106691380Y58412857D01*
X106691380Y58412857D02*
X106786619Y58317619D01*
X106786619Y58317619D02*
X106881857Y58127143D01*
X106881857Y58127143D02*
X106881857Y57365238D01*
X105834238Y59746190D02*
X105834238Y60127143D01*
X105834238Y60127143D02*
X105929476Y60317619D01*
X105929476Y60317619D02*
X106119952Y60508095D01*
X106119952Y60508095D02*
X106500904Y60603333D01*
X106500904Y60603333D02*
X107167571Y60603333D01*
X107167571Y60603333D02*
X107548523Y60508095D01*
X107548523Y60508095D02*
X107739000Y60317619D01*
X107739000Y60317619D02*
X107834238Y60127143D01*
X107834238Y60127143D02*
X107834238Y59746190D01*
X107834238Y59746190D02*
X107739000Y59555714D01*
X107739000Y59555714D02*
X107548523Y59365238D01*
X107548523Y59365238D02*
X107167571Y59270000D01*
X107167571Y59270000D02*
X106500904Y59270000D01*
X106500904Y59270000D02*
X106119952Y59365238D01*
X106119952Y59365238D02*
X105929476Y59555714D01*
X105929476Y59555714D02*
X105834238Y59746190D01*
X105834238Y61460476D02*
X107453285Y61460476D01*
X107453285Y61460476D02*
X107643761Y61555714D01*
X107643761Y61555714D02*
X107739000Y61650952D01*
X107739000Y61650952D02*
X107834238Y61841428D01*
X107834238Y61841428D02*
X107834238Y62222381D01*
X107834238Y62222381D02*
X107739000Y62412857D01*
X107739000Y62412857D02*
X107643761Y62508095D01*
X107643761Y62508095D02*
X107453285Y62603333D01*
X107453285Y62603333D02*
X105834238Y62603333D01*
X105834238Y63270000D02*
X105834238Y64412857D01*
X107834238Y63841428D02*
X105834238Y63841428D01*
X106786619Y65079524D02*
X106786619Y65746191D01*
X107834238Y66031905D02*
X107834238Y65079524D01*
X107834238Y65079524D02*
X105834238Y65079524D01*
X105834238Y65079524D02*
X105834238Y66031905D01*
X105834238Y68793810D02*
X105834238Y69174763D01*
X105834238Y69174763D02*
X105929476Y69365239D01*
X105929476Y69365239D02*
X106119952Y69555715D01*
X106119952Y69555715D02*
X106500904Y69650953D01*
X106500904Y69650953D02*
X107167571Y69650953D01*
X107167571Y69650953D02*
X107548523Y69555715D01*
X107548523Y69555715D02*
X107739000Y69365239D01*
X107739000Y69365239D02*
X107834238Y69174763D01*
X107834238Y69174763D02*
X107834238Y68793810D01*
X107834238Y68793810D02*
X107739000Y68603334D01*
X107739000Y68603334D02*
X107548523Y68412858D01*
X107548523Y68412858D02*
X107167571Y68317620D01*
X107167571Y68317620D02*
X106500904Y68317620D01*
X106500904Y68317620D02*
X106119952Y68412858D01*
X106119952Y68412858D02*
X105929476Y68603334D01*
X105929476Y68603334D02*
X105834238Y68793810D01*
X105834238Y70508096D02*
X107453285Y70508096D01*
X107453285Y70508096D02*
X107643761Y70603334D01*
X107643761Y70603334D02*
X107739000Y70698572D01*
X107739000Y70698572D02*
X107834238Y70889048D01*
X107834238Y70889048D02*
X107834238Y71270001D01*
X107834238Y71270001D02*
X107739000Y71460477D01*
X107739000Y71460477D02*
X107643761Y71555715D01*
X107643761Y71555715D02*
X107453285Y71650953D01*
X107453285Y71650953D02*
X105834238Y71650953D01*
X105834238Y72317620D02*
X105834238Y73460477D01*
X107834238Y72889048D02*
X105834238Y72889048D01*
X53486238Y58508095D02*
X52533857Y57841428D01*
X53486238Y57365238D02*
X51486238Y57365238D01*
X51486238Y57365238D02*
X51486238Y58127143D01*
X51486238Y58127143D02*
X51581476Y58317619D01*
X51581476Y58317619D02*
X51676714Y58412857D01*
X51676714Y58412857D02*
X51867190Y58508095D01*
X51867190Y58508095D02*
X52152904Y58508095D01*
X52152904Y58508095D02*
X52343380Y58412857D01*
X52343380Y58412857D02*
X52438619Y58317619D01*
X52438619Y58317619D02*
X52533857Y58127143D01*
X52533857Y58127143D02*
X52533857Y57365238D01*
X51486238Y59746190D02*
X51486238Y60127143D01*
X51486238Y60127143D02*
X51581476Y60317619D01*
X51581476Y60317619D02*
X51771952Y60508095D01*
X51771952Y60508095D02*
X52152904Y60603333D01*
X52152904Y60603333D02*
X52819571Y60603333D01*
X52819571Y60603333D02*
X53200523Y60508095D01*
X53200523Y60508095D02*
X53391000Y60317619D01*
X53391000Y60317619D02*
X53486238Y60127143D01*
X53486238Y60127143D02*
X53486238Y59746190D01*
X53486238Y59746190D02*
X53391000Y59555714D01*
X53391000Y59555714D02*
X53200523Y59365238D01*
X53200523Y59365238D02*
X52819571Y59270000D01*
X52819571Y59270000D02*
X52152904Y59270000D01*
X52152904Y59270000D02*
X51771952Y59365238D01*
X51771952Y59365238D02*
X51581476Y59555714D01*
X51581476Y59555714D02*
X51486238Y59746190D01*
X51486238Y61460476D02*
X53105285Y61460476D01*
X53105285Y61460476D02*
X53295761Y61555714D01*
X53295761Y61555714D02*
X53391000Y61650952D01*
X53391000Y61650952D02*
X53486238Y61841428D01*
X53486238Y61841428D02*
X53486238Y62222381D01*
X53486238Y62222381D02*
X53391000Y62412857D01*
X53391000Y62412857D02*
X53295761Y62508095D01*
X53295761Y62508095D02*
X53105285Y62603333D01*
X53105285Y62603333D02*
X51486238Y62603333D01*
X51486238Y63270000D02*
X51486238Y64412857D01*
X53486238Y63841428D02*
X51486238Y63841428D01*
X52438619Y65079524D02*
X52438619Y65746191D01*
X53486238Y66031905D02*
X53486238Y65079524D01*
X53486238Y65079524D02*
X51486238Y65079524D01*
X51486238Y65079524D02*
X51486238Y66031905D01*
X51486238Y68793810D02*
X51486238Y69174763D01*
X51486238Y69174763D02*
X51581476Y69365239D01*
X51581476Y69365239D02*
X51771952Y69555715D01*
X51771952Y69555715D02*
X52152904Y69650953D01*
X52152904Y69650953D02*
X52819571Y69650953D01*
X52819571Y69650953D02*
X53200523Y69555715D01*
X53200523Y69555715D02*
X53391000Y69365239D01*
X53391000Y69365239D02*
X53486238Y69174763D01*
X53486238Y69174763D02*
X53486238Y68793810D01*
X53486238Y68793810D02*
X53391000Y68603334D01*
X53391000Y68603334D02*
X53200523Y68412858D01*
X53200523Y68412858D02*
X52819571Y68317620D01*
X52819571Y68317620D02*
X52152904Y68317620D01*
X52152904Y68317620D02*
X51771952Y68412858D01*
X51771952Y68412858D02*
X51581476Y68603334D01*
X51581476Y68603334D02*
X51486238Y68793810D01*
X51486238Y70508096D02*
X53105285Y70508096D01*
X53105285Y70508096D02*
X53295761Y70603334D01*
X53295761Y70603334D02*
X53391000Y70698572D01*
X53391000Y70698572D02*
X53486238Y70889048D01*
X53486238Y70889048D02*
X53486238Y71270001D01*
X53486238Y71270001D02*
X53391000Y71460477D01*
X53391000Y71460477D02*
X53295761Y71555715D01*
X53295761Y71555715D02*
X53105285Y71650953D01*
X53105285Y71650953D02*
X51486238Y71650953D01*
X51486238Y72317620D02*
X51486238Y73460477D01*
X53486238Y72889048D02*
X51486238Y72889048D01*
X-861762Y58508095D02*
X-1814143Y57841428D01*
X-861762Y57365238D02*
X-2861762Y57365238D01*
X-2861762Y57365238D02*
X-2861762Y58127143D01*
X-2861762Y58127143D02*
X-2766524Y58317619D01*
X-2766524Y58317619D02*
X-2671286Y58412857D01*
X-2671286Y58412857D02*
X-2480810Y58508095D01*
X-2480810Y58508095D02*
X-2195096Y58508095D01*
X-2195096Y58508095D02*
X-2004620Y58412857D01*
X-2004620Y58412857D02*
X-1909381Y58317619D01*
X-1909381Y58317619D02*
X-1814143Y58127143D01*
X-1814143Y58127143D02*
X-1814143Y57365238D01*
X-2861762Y59746190D02*
X-2861762Y60127143D01*
X-2861762Y60127143D02*
X-2766524Y60317619D01*
X-2766524Y60317619D02*
X-2576048Y60508095D01*
X-2576048Y60508095D02*
X-2195096Y60603333D01*
X-2195096Y60603333D02*
X-1528429Y60603333D01*
X-1528429Y60603333D02*
X-1147477Y60508095D01*
X-1147477Y60508095D02*
X-957000Y60317619D01*
X-957000Y60317619D02*
X-861762Y60127143D01*
X-861762Y60127143D02*
X-861762Y59746190D01*
X-861762Y59746190D02*
X-957000Y59555714D01*
X-957000Y59555714D02*
X-1147477Y59365238D01*
X-1147477Y59365238D02*
X-1528429Y59270000D01*
X-1528429Y59270000D02*
X-2195096Y59270000D01*
X-2195096Y59270000D02*
X-2576048Y59365238D01*
X-2576048Y59365238D02*
X-2766524Y59555714D01*
X-2766524Y59555714D02*
X-2861762Y59746190D01*
X-2861762Y61460476D02*
X-1242715Y61460476D01*
X-1242715Y61460476D02*
X-1052239Y61555714D01*
X-1052239Y61555714D02*
X-957000Y61650952D01*
X-957000Y61650952D02*
X-861762Y61841428D01*
X-861762Y61841428D02*
X-861762Y62222381D01*
X-861762Y62222381D02*
X-957000Y62412857D01*
X-957000Y62412857D02*
X-1052239Y62508095D01*
X-1052239Y62508095D02*
X-1242715Y62603333D01*
X-1242715Y62603333D02*
X-2861762Y62603333D01*
X-2861762Y63270000D02*
X-2861762Y64412857D01*
X-861762Y63841428D02*
X-2861762Y63841428D01*
X-1909381Y65079524D02*
X-1909381Y65746191D01*
X-861762Y66031905D02*
X-861762Y65079524D01*
X-861762Y65079524D02*
X-2861762Y65079524D01*
X-2861762Y65079524D02*
X-2861762Y66031905D01*
X-2861762Y68793810D02*
X-2861762Y69174763D01*
X-2861762Y69174763D02*
X-2766524Y69365239D01*
X-2766524Y69365239D02*
X-2576048Y69555715D01*
X-2576048Y69555715D02*
X-2195096Y69650953D01*
X-2195096Y69650953D02*
X-1528429Y69650953D01*
X-1528429Y69650953D02*
X-1147477Y69555715D01*
X-1147477Y69555715D02*
X-957000Y69365239D01*
X-957000Y69365239D02*
X-861762Y69174763D01*
X-861762Y69174763D02*
X-861762Y68793810D01*
X-861762Y68793810D02*
X-957000Y68603334D01*
X-957000Y68603334D02*
X-1147477Y68412858D01*
X-1147477Y68412858D02*
X-1528429Y68317620D01*
X-1528429Y68317620D02*
X-2195096Y68317620D01*
X-2195096Y68317620D02*
X-2576048Y68412858D01*
X-2576048Y68412858D02*
X-2766524Y68603334D01*
X-2766524Y68603334D02*
X-2861762Y68793810D01*
X-2861762Y70508096D02*
X-1242715Y70508096D01*
X-1242715Y70508096D02*
X-1052239Y70603334D01*
X-1052239Y70603334D02*
X-957000Y70698572D01*
X-957000Y70698572D02*
X-861762Y70889048D01*
X-861762Y70889048D02*
X-861762Y71270001D01*
X-861762Y71270001D02*
X-957000Y71460477D01*
X-957000Y71460477D02*
X-1052239Y71555715D01*
X-1052239Y71555715D02*
X-1242715Y71650953D01*
X-1242715Y71650953D02*
X-2861762Y71650953D01*
X-2861762Y72317620D02*
X-2861762Y73460477D01*
X-861762Y72889048D02*
X-2861762Y72889048D01*
X-26121997Y837762D02*
X-25455331Y-1162238D01*
X-25455331Y-1162238D02*
X-24788664Y837762D01*
X-24121997Y-400333D02*
X-22598187Y-400333D01*
X-21741045Y-1067000D02*
X-21455331Y-1162238D01*
X-21455331Y-1162238D02*
X-20979140Y-1162238D01*
X-20979140Y-1162238D02*
X-20788664Y-1067000D01*
X-20788664Y-1067000D02*
X-20693426Y-971761D01*
X-20693426Y-971761D02*
X-20598188Y-781285D01*
X-20598188Y-781285D02*
X-20598188Y-590809D01*
X-20598188Y-590809D02*
X-20693426Y-400333D01*
X-20693426Y-400333D02*
X-20788664Y-305095D01*
X-20788664Y-305095D02*
X-20979140Y-209857D01*
X-20979140Y-209857D02*
X-21360093Y-114619D01*
X-21360093Y-114619D02*
X-21550569Y-19380D01*
X-21550569Y-19380D02*
X-21645807Y75858D01*
X-21645807Y75858D02*
X-21741045Y266334D01*
X-21741045Y266334D02*
X-21741045Y456810D01*
X-21741045Y456810D02*
X-21645807Y647286D01*
X-21645807Y647286D02*
X-21550569Y742524D01*
X-21550569Y742524D02*
X-21360093Y837762D01*
X-21360093Y837762D02*
X-20883902Y837762D01*
X-20883902Y837762D02*
X-20598188Y742524D01*
X-18598188Y-971761D02*
X-18693426Y-1067000D01*
X-18693426Y-1067000D02*
X-18979140Y-1162238D01*
X-18979140Y-1162238D02*
X-19169616Y-1162238D01*
X-19169616Y-1162238D02*
X-19455331Y-1067000D01*
X-19455331Y-1067000D02*
X-19645807Y-876523D01*
X-19645807Y-876523D02*
X-19741045Y-686047D01*
X-19741045Y-686047D02*
X-19836283Y-305095D01*
X-19836283Y-305095D02*
X-19836283Y-19380D01*
X-19836283Y-19380D02*
X-19741045Y361572D01*
X-19741045Y361572D02*
X-19645807Y552048D01*
X-19645807Y552048D02*
X-19455331Y742524D01*
X-19455331Y742524D02*
X-19169616Y837762D01*
X-19169616Y837762D02*
X-18979140Y837762D01*
X-18979140Y837762D02*
X-18693426Y742524D01*
X-18693426Y742524D02*
X-18598188Y647286D01*
X-17360093Y837762D02*
X-16979140Y837762D01*
X-16979140Y837762D02*
X-16788664Y742524D01*
X-16788664Y742524D02*
X-16598188Y552048D01*
X-16598188Y552048D02*
X-16502950Y171096D01*
X-16502950Y171096D02*
X-16502950Y-495571D01*
X-16502950Y-495571D02*
X-16598188Y-876523D01*
X-16598188Y-876523D02*
X-16788664Y-1067000D01*
X-16788664Y-1067000D02*
X-16979140Y-1162238D01*
X-16979140Y-1162238D02*
X-17360093Y-1162238D01*
X-17360093Y-1162238D02*
X-17550569Y-1067000D01*
X-17550569Y-1067000D02*
X-17741045Y-876523D01*
X-17741045Y-876523D02*
X-17836283Y-495571D01*
X-17836283Y-495571D02*
X-17836283Y171096D01*
X-17836283Y171096D02*
X-17741045Y552048D01*
X-17741045Y552048D02*
X-17550569Y742524D01*
X-17550569Y742524D02*
X-17360093Y837762D01*
X-14502950Y-1162238D02*
X-15169617Y-209857D01*
X-15645807Y-1162238D02*
X-15645807Y837762D01*
X-15645807Y837762D02*
X-14883902Y837762D01*
X-14883902Y837762D02*
X-14693426Y742524D01*
X-14693426Y742524D02*
X-14598188Y647286D01*
X-14598188Y647286D02*
X-14502950Y456810D01*
X-14502950Y456810D02*
X-14502950Y171096D01*
X-14502950Y171096D02*
X-14598188Y-19380D01*
X-14598188Y-19380D02*
X-14693426Y-114619D01*
X-14693426Y-114619D02*
X-14883902Y-209857D01*
X-14883902Y-209857D02*
X-15645807Y-209857D01*
X-13645807Y-114619D02*
X-12979140Y-114619D01*
X-12693426Y-1162238D02*
X-13645807Y-1162238D01*
X-13645807Y-1162238D02*
X-13645807Y837762D01*
X-13645807Y837762D02*
X-12693426Y837762D01*
D12*
X-10148000Y-250000D02*
X169644000Y-250000D01*
D11*
X-26121997Y44517762D02*
X-25455331Y42517762D01*
X-25455331Y42517762D02*
X-24788664Y44517762D01*
X-24121997Y43279667D02*
X-22598187Y43279667D01*
X-21741045Y42613000D02*
X-21455331Y42517762D01*
X-21455331Y42517762D02*
X-20979140Y42517762D01*
X-20979140Y42517762D02*
X-20788664Y42613000D01*
X-20788664Y42613000D02*
X-20693426Y42708239D01*
X-20693426Y42708239D02*
X-20598188Y42898715D01*
X-20598188Y42898715D02*
X-20598188Y43089191D01*
X-20598188Y43089191D02*
X-20693426Y43279667D01*
X-20693426Y43279667D02*
X-20788664Y43374905D01*
X-20788664Y43374905D02*
X-20979140Y43470143D01*
X-20979140Y43470143D02*
X-21360093Y43565381D01*
X-21360093Y43565381D02*
X-21550569Y43660620D01*
X-21550569Y43660620D02*
X-21645807Y43755858D01*
X-21645807Y43755858D02*
X-21741045Y43946334D01*
X-21741045Y43946334D02*
X-21741045Y44136810D01*
X-21741045Y44136810D02*
X-21645807Y44327286D01*
X-21645807Y44327286D02*
X-21550569Y44422524D01*
X-21550569Y44422524D02*
X-21360093Y44517762D01*
X-21360093Y44517762D02*
X-20883902Y44517762D01*
X-20883902Y44517762D02*
X-20598188Y44422524D01*
X-18598188Y42708239D02*
X-18693426Y42613000D01*
X-18693426Y42613000D02*
X-18979140Y42517762D01*
X-18979140Y42517762D02*
X-19169616Y42517762D01*
X-19169616Y42517762D02*
X-19455331Y42613000D01*
X-19455331Y42613000D02*
X-19645807Y42803477D01*
X-19645807Y42803477D02*
X-19741045Y42993953D01*
X-19741045Y42993953D02*
X-19836283Y43374905D01*
X-19836283Y43374905D02*
X-19836283Y43660620D01*
X-19836283Y43660620D02*
X-19741045Y44041572D01*
X-19741045Y44041572D02*
X-19645807Y44232048D01*
X-19645807Y44232048D02*
X-19455331Y44422524D01*
X-19455331Y44422524D02*
X-19169616Y44517762D01*
X-19169616Y44517762D02*
X-18979140Y44517762D01*
X-18979140Y44517762D02*
X-18693426Y44422524D01*
X-18693426Y44422524D02*
X-18598188Y44327286D01*
X-17360093Y44517762D02*
X-16979140Y44517762D01*
X-16979140Y44517762D02*
X-16788664Y44422524D01*
X-16788664Y44422524D02*
X-16598188Y44232048D01*
X-16598188Y44232048D02*
X-16502950Y43851096D01*
X-16502950Y43851096D02*
X-16502950Y43184429D01*
X-16502950Y43184429D02*
X-16598188Y42803477D01*
X-16598188Y42803477D02*
X-16788664Y42613000D01*
X-16788664Y42613000D02*
X-16979140Y42517762D01*
X-16979140Y42517762D02*
X-17360093Y42517762D01*
X-17360093Y42517762D02*
X-17550569Y42613000D01*
X-17550569Y42613000D02*
X-17741045Y42803477D01*
X-17741045Y42803477D02*
X-17836283Y43184429D01*
X-17836283Y43184429D02*
X-17836283Y43851096D01*
X-17836283Y43851096D02*
X-17741045Y44232048D01*
X-17741045Y44232048D02*
X-17550569Y44422524D01*
X-17550569Y44422524D02*
X-17360093Y44517762D01*
X-14502950Y42517762D02*
X-15169617Y43470143D01*
X-15645807Y42517762D02*
X-15645807Y44517762D01*
X-15645807Y44517762D02*
X-14883902Y44517762D01*
X-14883902Y44517762D02*
X-14693426Y44422524D01*
X-14693426Y44422524D02*
X-14598188Y44327286D01*
X-14598188Y44327286D02*
X-14502950Y44136810D01*
X-14502950Y44136810D02*
X-14502950Y43851096D01*
X-14502950Y43851096D02*
X-14598188Y43660620D01*
X-14598188Y43660620D02*
X-14693426Y43565381D01*
X-14693426Y43565381D02*
X-14883902Y43470143D01*
X-14883902Y43470143D02*
X-15645807Y43470143D01*
X-13645807Y43565381D02*
X-12979140Y43565381D01*
X-12693426Y42517762D02*
X-13645807Y42517762D01*
X-13645807Y42517762D02*
X-13645807Y44517762D01*
X-13645807Y44517762D02*
X-12693426Y44517762D01*
D12*
X-10148000Y43430000D02*
X169644000Y43430000D01*
D11*
X-26121997Y88197762D02*
X-25455331Y86197762D01*
X-25455331Y86197762D02*
X-24788664Y88197762D01*
X-24121997Y86959667D02*
X-22598187Y86959667D01*
X-21741045Y86293000D02*
X-21455331Y86197762D01*
X-21455331Y86197762D02*
X-20979140Y86197762D01*
X-20979140Y86197762D02*
X-20788664Y86293000D01*
X-20788664Y86293000D02*
X-20693426Y86388239D01*
X-20693426Y86388239D02*
X-20598188Y86578715D01*
X-20598188Y86578715D02*
X-20598188Y86769191D01*
X-20598188Y86769191D02*
X-20693426Y86959667D01*
X-20693426Y86959667D02*
X-20788664Y87054905D01*
X-20788664Y87054905D02*
X-20979140Y87150143D01*
X-20979140Y87150143D02*
X-21360093Y87245381D01*
X-21360093Y87245381D02*
X-21550569Y87340620D01*
X-21550569Y87340620D02*
X-21645807Y87435858D01*
X-21645807Y87435858D02*
X-21741045Y87626334D01*
X-21741045Y87626334D02*
X-21741045Y87816810D01*
X-21741045Y87816810D02*
X-21645807Y88007286D01*
X-21645807Y88007286D02*
X-21550569Y88102524D01*
X-21550569Y88102524D02*
X-21360093Y88197762D01*
X-21360093Y88197762D02*
X-20883902Y88197762D01*
X-20883902Y88197762D02*
X-20598188Y88102524D01*
X-18598188Y86388239D02*
X-18693426Y86293000D01*
X-18693426Y86293000D02*
X-18979140Y86197762D01*
X-18979140Y86197762D02*
X-19169616Y86197762D01*
X-19169616Y86197762D02*
X-19455331Y86293000D01*
X-19455331Y86293000D02*
X-19645807Y86483477D01*
X-19645807Y86483477D02*
X-19741045Y86673953D01*
X-19741045Y86673953D02*
X-19836283Y87054905D01*
X-19836283Y87054905D02*
X-19836283Y87340620D01*
X-19836283Y87340620D02*
X-19741045Y87721572D01*
X-19741045Y87721572D02*
X-19645807Y87912048D01*
X-19645807Y87912048D02*
X-19455331Y88102524D01*
X-19455331Y88102524D02*
X-19169616Y88197762D01*
X-19169616Y88197762D02*
X-18979140Y88197762D01*
X-18979140Y88197762D02*
X-18693426Y88102524D01*
X-18693426Y88102524D02*
X-18598188Y88007286D01*
X-17360093Y88197762D02*
X-16979140Y88197762D01*
X-16979140Y88197762D02*
X-16788664Y88102524D01*
X-16788664Y88102524D02*
X-16598188Y87912048D01*
X-16598188Y87912048D02*
X-16502950Y87531096D01*
X-16502950Y87531096D02*
X-16502950Y86864429D01*
X-16502950Y86864429D02*
X-16598188Y86483477D01*
X-16598188Y86483477D02*
X-16788664Y86293000D01*
X-16788664Y86293000D02*
X-16979140Y86197762D01*
X-16979140Y86197762D02*
X-17360093Y86197762D01*
X-17360093Y86197762D02*
X-17550569Y86293000D01*
X-17550569Y86293000D02*
X-17741045Y86483477D01*
X-17741045Y86483477D02*
X-17836283Y86864429D01*
X-17836283Y86864429D02*
X-17836283Y87531096D01*
X-17836283Y87531096D02*
X-17741045Y87912048D01*
X-17741045Y87912048D02*
X-17550569Y88102524D01*
X-17550569Y88102524D02*
X-17360093Y88197762D01*
X-14502950Y86197762D02*
X-15169617Y87150143D01*
X-15645807Y86197762D02*
X-15645807Y88197762D01*
X-15645807Y88197762D02*
X-14883902Y88197762D01*
X-14883902Y88197762D02*
X-14693426Y88102524D01*
X-14693426Y88102524D02*
X-14598188Y88007286D01*
X-14598188Y88007286D02*
X-14502950Y87816810D01*
X-14502950Y87816810D02*
X-14502950Y87531096D01*
X-14502950Y87531096D02*
X-14598188Y87340620D01*
X-14598188Y87340620D02*
X-14693426Y87245381D01*
X-14693426Y87245381D02*
X-14883902Y87150143D01*
X-14883902Y87150143D02*
X-15645807Y87150143D01*
X-13645807Y87245381D02*
X-12979140Y87245381D01*
X-12693426Y86197762D02*
X-13645807Y86197762D01*
X-13645807Y86197762D02*
X-13645807Y88197762D01*
X-13645807Y88197762D02*
X-12693426Y88197762D01*
D12*
X-10148000Y87110000D02*
X169644000Y87110000D01*
D11*
X-26121997Y131877761D02*
X-25455331Y129877761D01*
X-25455331Y129877761D02*
X-24788664Y131877761D01*
X-24121997Y130639666D02*
X-22598187Y130639666D01*
X-21741045Y129973000D02*
X-21455331Y129877761D01*
X-21455331Y129877761D02*
X-20979140Y129877761D01*
X-20979140Y129877761D02*
X-20788664Y129973000D01*
X-20788664Y129973000D02*
X-20693426Y130068238D01*
X-20693426Y130068238D02*
X-20598188Y130258714D01*
X-20598188Y130258714D02*
X-20598188Y130449190D01*
X-20598188Y130449190D02*
X-20693426Y130639666D01*
X-20693426Y130639666D02*
X-20788664Y130734904D01*
X-20788664Y130734904D02*
X-20979140Y130830142D01*
X-20979140Y130830142D02*
X-21360093Y130925380D01*
X-21360093Y130925380D02*
X-21550569Y131020619D01*
X-21550569Y131020619D02*
X-21645807Y131115857D01*
X-21645807Y131115857D02*
X-21741045Y131306333D01*
X-21741045Y131306333D02*
X-21741045Y131496809D01*
X-21741045Y131496809D02*
X-21645807Y131687285D01*
X-21645807Y131687285D02*
X-21550569Y131782523D01*
X-21550569Y131782523D02*
X-21360093Y131877761D01*
X-21360093Y131877761D02*
X-20883902Y131877761D01*
X-20883902Y131877761D02*
X-20598188Y131782523D01*
X-18598188Y130068238D02*
X-18693426Y129973000D01*
X-18693426Y129973000D02*
X-18979140Y129877761D01*
X-18979140Y129877761D02*
X-19169616Y129877761D01*
X-19169616Y129877761D02*
X-19455331Y129973000D01*
X-19455331Y129973000D02*
X-19645807Y130163476D01*
X-19645807Y130163476D02*
X-19741045Y130353952D01*
X-19741045Y130353952D02*
X-19836283Y130734904D01*
X-19836283Y130734904D02*
X-19836283Y131020619D01*
X-19836283Y131020619D02*
X-19741045Y131401571D01*
X-19741045Y131401571D02*
X-19645807Y131592047D01*
X-19645807Y131592047D02*
X-19455331Y131782523D01*
X-19455331Y131782523D02*
X-19169616Y131877761D01*
X-19169616Y131877761D02*
X-18979140Y131877761D01*
X-18979140Y131877761D02*
X-18693426Y131782523D01*
X-18693426Y131782523D02*
X-18598188Y131687285D01*
X-17360093Y131877761D02*
X-16979140Y131877761D01*
X-16979140Y131877761D02*
X-16788664Y131782523D01*
X-16788664Y131782523D02*
X-16598188Y131592047D01*
X-16598188Y131592047D02*
X-16502950Y131211095D01*
X-16502950Y131211095D02*
X-16502950Y130544428D01*
X-16502950Y130544428D02*
X-16598188Y130163476D01*
X-16598188Y130163476D02*
X-16788664Y129973000D01*
X-16788664Y129973000D02*
X-16979140Y129877761D01*
X-16979140Y129877761D02*
X-17360093Y129877761D01*
X-17360093Y129877761D02*
X-17550569Y129973000D01*
X-17550569Y129973000D02*
X-17741045Y130163476D01*
X-17741045Y130163476D02*
X-17836283Y130544428D01*
X-17836283Y130544428D02*
X-17836283Y131211095D01*
X-17836283Y131211095D02*
X-17741045Y131592047D01*
X-17741045Y131592047D02*
X-17550569Y131782523D01*
X-17550569Y131782523D02*
X-17360093Y131877761D01*
X-14502950Y129877761D02*
X-15169617Y130830142D01*
X-15645807Y129877761D02*
X-15645807Y131877761D01*
X-15645807Y131877761D02*
X-14883902Y131877761D01*
X-14883902Y131877761D02*
X-14693426Y131782523D01*
X-14693426Y131782523D02*
X-14598188Y131687285D01*
X-14598188Y131687285D02*
X-14502950Y131496809D01*
X-14502950Y131496809D02*
X-14502950Y131211095D01*
X-14502950Y131211095D02*
X-14598188Y131020619D01*
X-14598188Y131020619D02*
X-14693426Y130925380D01*
X-14693426Y130925380D02*
X-14883902Y130830142D01*
X-14883902Y130830142D02*
X-15645807Y130830142D01*
X-13645807Y130925380D02*
X-12979140Y130925380D01*
X-12693426Y129877761D02*
X-13645807Y129877761D01*
X-13645807Y129877761D02*
X-13645807Y131877761D01*
X-13645807Y131877761D02*
X-12693426Y131877761D01*
D12*
X-10148000Y130790000D02*
X169644000Y130790000D01*
M02*
